<?xml version="1.0" encoding="UTF-8" standalone="no"?><svg xmlns="http://www.w3.org/2000/svg" xmlns:xlink="http://www.w3.org/1999/xlink" clip-rule="evenodd" stroke-miterlimit="4.00" viewBox="0 0 392 264"><desc>SVG generated by Keynote</desc><defs></defs><g transform="matrix(1.00, 0.00, -0.00, -1.00, 0.0, 264.0)"><path d="M 1.2 262.8 L 390.1 262.8 L 390.1 1.0 L 1.2 1.0 Z M 1.2 262.8 " fill="#BFBFBF"></path><g><clipPath id="clip-701"><path d="M -4.1 1.0 L 401.5 1.0 L 401.5 262.8 L -4.1 262.8 Z M -4.1 1.0 "></path></clipPath><g clip-path="url(#clip-701)"><text xml:space="preserve" font-family="Courier" font-size="16.9" fill="#8858A7" transform="matrix(1.00, 0.00, -0.00, -1.00, 1.0, 237.0)">i</text><text xml:space="preserve" font-family="Courier" font-size="16.9" fill="#8858A7" transform="matrix(1.00, 0.00, -0.00, -1.00, 11.2, 237.0)">n</text><text xml:space="preserve" font-family="Courier" font-size="16.9" fill="#8858A7" transform="matrix(1.00, 0.00, -0.00, -1.00, 21.3, 237.0)">t</text><text xml:space="preserve" font-family="Courier" font-size="16.9" fill="#333333" transform="matrix(1.00, 0.00, -0.00, -1.00, 31.5, 237.0)"> </text><text xml:space="preserve" font-family="Courier" font-size="16.9" fill="#333333" transform="matrix(1.00, 0.00, -0.00, -1.00, 41.6, 237.0)">m</text><text xml:space="preserve" font-family="Courier" font-size="16.9" fill="#333333" transform="matrix(1.00, 0.00, -0.00, -1.00, 51.8, 237.0)">a</text><text xml:space="preserve" font-family="Courier" font-size="16.9" fill="#333333" transform="matrix(1.00, 0.00, -0.00, -1.00, 61.9, 237.0)">i</text><text xml:space="preserve" font-family="Courier" font-size="16.9" fill="#333333" transform="matrix(1.00, 0.00, -0.00, -1.00, 72.1, 237.0)">n</text><text xml:space="preserve" font-family="Courier" font-size="16.9" fill="#333333" transform="matrix(1.00, 0.00, -0.00, -1.00, 82.2, 237.0)">(</text><text xml:space="preserve" font-family="Courier" font-size="16.9" fill="#333333" transform="matrix(1.00, 0.00, -0.00, -1.00, 92.4, 237.0)">)</text><text xml:space="preserve" font-family="Courier" font-size="16.9" fill="#333333" transform="matrix(1.00, 0.00, -0.00, -1.00, 102.5, 237.0)"> </text><text xml:space="preserve" font-family="Courier" font-size="16.9" fill="#333333" transform="matrix(1.00, 0.00, -0.00, -1.00, 1.0, 217.0)">{</text><text xml:space="preserve" font-family="Courier" font-size="16.9" fill="#333333" transform="matrix(1.00, 0.00, -0.00, -1.00, 11.2, 217.0)"> </text><text xml:space="preserve" font-family="Courier" font-size="16.9" fill="#8858A7" transform="matrix(1.00, 0.00, -0.00, -1.00, 1.0, 197.0)"> </text><text xml:space="preserve" font-family="Courier" font-size="16.9" fill="#8858A7" transform="matrix(1.00, 0.00, -0.00, -1.00, 11.2, 197.0)"> </text><text xml:space="preserve" font-family="Courier" font-size="16.9" fill="#8858A7" transform="matrix(1.00, 0.00, -0.00, -1.00, 21.3, 197.0)">i</text><text xml:space="preserve" font-family="Courier" font-size="16.9" fill="#8858A7" transform="matrix(1.00, 0.00, -0.00, -1.00, 31.5, 197.0)">n</text><text xml:space="preserve" font-family="Courier" font-size="16.9" fill="#8858A7" transform="matrix(1.00, 0.00, -0.00, -1.00, 41.6, 197.0)">t</text><text xml:space="preserve" font-family="Courier" font-size="16.9" fill="#333333" transform="matrix(1.00, 0.00, -0.00, -1.00, 51.8, 197.0)"> </text><text xml:space="preserve" font-family="Courier" font-size="16.9" fill="#333333" transform="matrix(1.00, 0.00, -0.00, -1.00, 61.9, 197.0)">a</text><text xml:space="preserve" font-family="Courier" font-size="16.9" fill="#333333" transform="matrix(1.00, 0.00, -0.00, -1.00, 72.1, 197.0)">,</text><text xml:space="preserve" font-family="Courier" font-size="16.9" fill="#333333" transform="matrix(1.00, 0.00, -0.00, -1.00, 82.2, 197.0)"> </text><text xml:space="preserve" font-family="Courier" font-size="16.9" fill="#333333" transform="matrix(1.00, 0.00, -0.00, -1.00, 92.4, 197.0)">b</text><text xml:space="preserve" font-family="Courier" font-size="16.9" fill="#333333" transform="matrix(1.00, 0.00, -0.00, -1.00, 102.5, 197.0)">;</text><text xml:space="preserve" font-family="Courier" font-size="16.9" fill="#333333" transform="matrix(1.00, 0.00, -0.00, -1.00, 112.7, 197.0)"> </text><text xml:space="preserve" font-family="Courier" font-size="16.9" fill="#F4871E" transform="matrix(1.00, 0.00, -0.00, -1.00, 1.0, 177.0)"> </text><text xml:space="preserve" font-family="Courier" font-size="16.9" fill="#F4871E" transform="matrix(1.00, 0.00, -0.00, -1.00, 11.2, 177.0)"> </text><text xml:space="preserve" font-family="Courier" font-size="16.9" fill="#F4871E" transform="matrix(1.00, 0.00, -0.00, -1.00, 21.3, 177.0)">c</text><text xml:space="preserve" font-family="Courier" font-size="16.9" fill="#F4871E" transform="matrix(1.00, 0.00, -0.00, -1.00, 31.5, 177.0)">i</text><text xml:space="preserve" font-family="Courier" font-size="16.9" fill="#F4871E" transform="matrix(1.00, 0.00, -0.00, -1.00, 41.6, 177.0)">n</text><text xml:space="preserve" font-family="Courier" font-size="16.9" fill="#333333" transform="matrix(1.00, 0.00, -0.00, -1.00, 51.8, 177.0)"> </text><text xml:space="preserve" font-family="Courier" font-size="16.9" fill="#333333" transform="matrix(1.00, 0.00, -0.00, -1.00, 61.9, 177.0)">&gt;</text><text xml:space="preserve" font-family="Courier" font-size="16.9" fill="#333333" transform="matrix(1.00, 0.00, -0.00, -1.00, 72.1, 177.0)">&gt;</text><text xml:space="preserve" font-family="Courier" font-size="16.9" fill="#333333" transform="matrix(1.00, 0.00, -0.00, -1.00, 82.2, 177.0)"> </text><text xml:space="preserve" font-family="Courier" font-size="16.9" fill="#333333" transform="matrix(1.00, 0.00, -0.00, -1.00, 92.4, 177.0)">a</text><text xml:space="preserve" font-family="Courier" font-size="16.9" fill="#333333" transform="matrix(1.00, 0.00, -0.00, -1.00, 102.5, 177.0)"> </text><text xml:space="preserve" font-family="Courier" font-size="16.9" fill="#333333" transform="matrix(1.00, 0.00, -0.00, -1.00, 112.7, 177.0)">&gt;</text><text xml:space="preserve" font-family="Courier" font-size="16.9" fill="#333333" transform="matrix(1.00, 0.00, -0.00, -1.00, 122.9, 177.0)">&gt;</text><text xml:space="preserve" font-family="Courier" font-size="16.9" fill="#333333" transform="matrix(1.00, 0.00, -0.00, -1.00, 133.0, 177.0)"> </text><text xml:space="preserve" font-family="Courier" font-size="16.9" fill="#333333" transform="matrix(1.00, 0.00, -0.00, -1.00, 143.2, 177.0)">b</text><text xml:space="preserve" font-family="Courier" font-size="16.9" fill="#333333" transform="matrix(1.00, 0.00, -0.00, -1.00, 153.3, 177.0)">;</text><text xml:space="preserve" font-family="Courier" font-size="16.9" fill="#333333" transform="matrix(1.00, 0.00, -0.00, -1.00, 1.0, 157.0)"> </text><text xml:space="preserve" font-family="Courier" font-size="16.9" fill="#333333" transform="matrix(1.00, 0.00, -0.00, -1.00, 11.2, 157.0)"> </text><text xml:space="preserve" font-family="Courier" font-size="16.9" fill="#F4871E" transform="matrix(1.00, 0.00, -0.00, -1.00, 21.3, 157.0)">c</text><text xml:space="preserve" font-family="Courier" font-size="16.9" fill="#F4871E" transform="matrix(1.00, 0.00, -0.00, -1.00, 31.5, 157.0)">o</text><text xml:space="preserve" font-family="Courier" font-size="16.9" fill="#F4871E" transform="matrix(1.00, 0.00, -0.00, -1.00, 41.6, 157.0)">u</text><text xml:space="preserve" font-family="Courier" font-size="16.9" fill="#F4871E" transform="matrix(1.00, 0.00, -0.00, -1.00, 51.8, 157.0)">t</text><text xml:space="preserve" font-family="Courier" font-size="16.9" fill="#333333" transform="matrix(1.00, 0.00, -0.00, -1.00, 61.9, 157.0)"> </text><text xml:space="preserve" font-family="Courier" font-size="16.9" fill="#333333" transform="matrix(1.00, 0.00, -0.00, -1.00, 72.1, 157.0)">&lt;</text><text xml:space="preserve" font-family="Courier" font-size="16.9" fill="#333333" transform="matrix(1.00, 0.00, -0.00, -1.00, 82.2, 157.0)">&lt;</text><text xml:space="preserve" font-family="Courier" font-size="16.9" fill="#333333" transform="matrix(1.00, 0.00, -0.00, -1.00, 92.4, 157.0)"> </text><text xml:space="preserve" font-family="Courier" font-size="16.9" fill="#718B00" transform="matrix(1.00, 0.00, -0.00, -1.00, 102.5, 157.0)">"</text><text xml:space="preserve" font-family="Courier" font-size="16.9" fill="#718B00" transform="matrix(1.00, 0.00, -0.00, -1.00, 112.7, 157.0)">a</text><text xml:space="preserve" font-family="Courier" font-size="16.9" fill="#718B00" transform="matrix(1.00, 0.00, -0.00, -1.00, 122.8, 157.0)">=</text><text xml:space="preserve" font-family="Courier" font-size="16.9" fill="#718B00" transform="matrix(1.00, 0.00, -0.00, -1.00, 133.0, 157.0)">=</text><text xml:space="preserve" font-family="Courier" font-size="16.9" fill="#718B00" transform="matrix(1.00, 0.00, -0.00, -1.00, 143.2, 157.0)">b</text><text xml:space="preserve" font-family="Courier" font-size="16.9" fill="#718B00" transform="matrix(1.00, 0.00, -0.00, -1.00, 153.3, 157.0)"> </text><text xml:space="preserve" font-family="Courier" font-size="16.9" fill="#718B00" transform="matrix(1.00, 0.00, -0.00, -1.00, 163.5, 157.0)">:</text><text xml:space="preserve" font-family="Courier" font-size="16.9" fill="#718B00" transform="matrix(1.00, 0.00, -0.00, -1.00, 173.6, 157.0)"> </text><text xml:space="preserve" font-family="Courier" font-size="16.9" fill="#718B00" transform="matrix(1.00, 0.00, -0.00, -1.00, 183.8, 157.0)">"</text><text xml:space="preserve" font-family="Courier" font-size="16.9" fill="#333333" transform="matrix(1.00, 0.00, -0.00, -1.00, 193.9, 157.0)"> </text><text xml:space="preserve" font-family="Courier" font-size="16.9" fill="#333333" transform="matrix(1.00, 0.00, -0.00, -1.00, 204.1, 157.0)">&lt;</text><text xml:space="preserve" font-family="Courier" font-size="16.9" fill="#333333" transform="matrix(1.00, 0.00, -0.00, -1.00, 214.2, 157.0)">&lt;</text><text xml:space="preserve" font-family="Courier" font-size="16.9" fill="#333333" transform="matrix(1.00, 0.00, -0.00, -1.00, 224.4, 157.0)"> </text><text xml:space="preserve" font-family="Courier" font-size="16.9" fill="#333333" transform="matrix(1.00, 0.00, -0.00, -1.00, 234.5, 157.0)">(</text><text xml:space="preserve" font-family="Courier" font-size="16.9" fill="#333333" transform="matrix(1.00, 0.00, -0.00, -1.00, 244.7, 157.0)">a</text><text xml:space="preserve" font-family="Courier" font-size="16.9" fill="#333333" transform="matrix(1.00, 0.00, -0.00, -1.00, 254.9, 157.0)">=</text><text xml:space="preserve" font-family="Courier" font-size="16.9" fill="#333333" transform="matrix(1.00, 0.00, -0.00, -1.00, 265.0, 157.0)">=</text><text xml:space="preserve" font-family="Courier" font-size="16.9" fill="#333333" transform="matrix(1.00, 0.00, -0.00, -1.00, 275.2, 157.0)">b</text><text xml:space="preserve" font-family="Courier" font-size="16.9" fill="#333333" transform="matrix(1.00, 0.00, -0.00, -1.00, 285.3, 157.0)">)</text><text xml:space="preserve" font-family="Courier" font-size="16.9" fill="#333333" transform="matrix(1.00, 0.00, -0.00, -1.00, 295.5, 157.0)"> </text><text xml:space="preserve" font-family="Courier" font-size="16.9" fill="#333333" transform="matrix(1.00, 0.00, -0.00, -1.00, 305.6, 157.0)">&lt;</text><text xml:space="preserve" font-family="Courier" font-size="16.9" fill="#333333" transform="matrix(1.00, 0.00, -0.00, -1.00, 315.8, 157.0)">&lt;</text><text xml:space="preserve" font-family="Courier" font-size="16.9" fill="#333333" transform="matrix(1.00, 0.00, -0.00, -1.00, 325.9, 157.0)"> </text><text xml:space="preserve" font-family="Courier" font-size="16.9" fill="#333333" transform="matrix(1.00, 0.00, -0.00, -1.00, 336.1, 157.0)">e</text><text xml:space="preserve" font-family="Courier" font-size="16.9" fill="#333333" transform="matrix(1.00, 0.00, -0.00, -1.00, 346.2, 157.0)">n</text><text xml:space="preserve" font-family="Courier" font-size="16.9" fill="#333333" transform="matrix(1.00, 0.00, -0.00, -1.00, 356.4, 157.0)">d</text><text xml:space="preserve" font-family="Courier" font-size="16.9" fill="#333333" transform="matrix(1.00, 0.00, -0.00, -1.00, 366.6, 157.0)">l</text><text xml:space="preserve" font-family="Courier" font-size="16.9" fill="#333333" transform="matrix(1.00, 0.00, -0.00, -1.00, 376.7, 157.0)">;</text><text xml:space="preserve" font-family="Courier" font-size="16.9" fill="#333333" transform="matrix(1.00, 0.00, -0.00, -1.00, 386.9, 157.0)"> </text><text xml:space="preserve" font-family="Courier" font-size="16.9" fill="#F4871E" transform="matrix(1.00, 0.00, -0.00, -1.00, 1.0, 137.0)"> </text><text xml:space="preserve" font-family="Courier" font-size="16.9" fill="#F4871E" transform="matrix(1.00, 0.00, -0.00, -1.00, 11.2, 137.0)"> </text><text xml:space="preserve" font-family="Courier" font-size="16.9" fill="#F4871E" transform="matrix(1.00, 0.00, -0.00, -1.00, 21.3, 137.0)">c</text><text xml:space="preserve" font-family="Courier" font-size="16.9" fill="#F4871E" transform="matrix(1.00, 0.00, -0.00, -1.00, 31.5, 137.0)">o</text><text xml:space="preserve" font-family="Courier" font-size="16.9" fill="#F4871E" transform="matrix(1.00, 0.00, -0.00, -1.00, 41.6, 137.0)">u</text><text xml:space="preserve" font-family="Courier" font-size="16.9" fill="#F4871E" transform="matrix(1.00, 0.00, -0.00, -1.00, 51.8, 137.0)">t</text><text xml:space="preserve" font-family="Courier" font-size="16.9" fill="#333333" transform="matrix(1.00, 0.00, -0.00, -1.00, 61.9, 137.0)"> </text><text xml:space="preserve" font-family="Courier" font-size="16.9" fill="#333333" transform="matrix(1.00, 0.00, -0.00, -1.00, 72.1, 137.0)">&lt;</text><text xml:space="preserve" font-family="Courier" font-size="16.9" fill="#333333" transform="matrix(1.00, 0.00, -0.00, -1.00, 82.2, 137.0)">&lt;</text><text xml:space="preserve" font-family="Courier" font-size="16.9" fill="#333333" transform="matrix(1.00, 0.00, -0.00, -1.00, 92.4, 137.0)"> </text><text xml:space="preserve" font-family="Courier" font-size="16.9" fill="#718B00" transform="matrix(1.00, 0.00, -0.00, -1.00, 102.5, 137.0)">"</text><text xml:space="preserve" font-family="Courier" font-size="16.9" fill="#718B00" transform="matrix(1.00, 0.00, -0.00, -1.00, 112.7, 137.0)">a</text><text xml:space="preserve" font-family="Courier" font-size="16.9" fill="#718B00" transform="matrix(1.00, 0.00, -0.00, -1.00, 122.8, 137.0)">!</text><text xml:space="preserve" font-family="Courier" font-size="16.9" fill="#718B00" transform="matrix(1.00, 0.00, -0.00, -1.00, 133.0, 137.0)">=</text><text xml:space="preserve" font-family="Courier" font-size="16.9" fill="#718B00" transform="matrix(1.00, 0.00, -0.00, -1.00, 143.2, 137.0)">b</text><text xml:space="preserve" font-family="Courier" font-size="16.9" fill="#718B00" transform="matrix(1.00, 0.00, -0.00, -1.00, 153.3, 137.0)"> </text><text xml:space="preserve" font-family="Courier" font-size="16.9" fill="#718B00" transform="matrix(1.00, 0.00, -0.00, -1.00, 163.5, 137.0)">:</text><text xml:space="preserve" font-family="Courier" font-size="16.9" fill="#718B00" transform="matrix(1.00, 0.00, -0.00, -1.00, 173.6, 137.0)"> </text><text xml:space="preserve" font-family="Courier" font-size="16.9" fill="#718B00" transform="matrix(1.00, 0.00, -0.00, -1.00, 183.8, 137.0)">"</text><text xml:space="preserve" font-family="Courier" font-size="16.9" fill="#333333" transform="matrix(1.00, 0.00, -0.00, -1.00, 193.9, 137.0)"> </text><text xml:space="preserve" font-family="Courier" font-size="16.9" fill="#333333" transform="matrix(1.00, 0.00, -0.00, -1.00, 204.1, 137.0)">&lt;</text><text xml:space="preserve" font-family="Courier" font-size="16.9" fill="#333333" transform="matrix(1.00, 0.00, -0.00, -1.00, 214.2, 137.0)">&lt;</text><text xml:space="preserve" font-family="Courier" font-size="16.9" fill="#333333" transform="matrix(1.00, 0.00, -0.00, -1.00, 224.4, 137.0)"> </text><text xml:space="preserve" font-family="Courier" font-size="16.9" fill="#333333" transform="matrix(1.00, 0.00, -0.00, -1.00, 234.5, 137.0)">(</text><text xml:space="preserve" font-family="Courier" font-size="16.9" fill="#333333" transform="matrix(1.00, 0.00, -0.00, -1.00, 244.7, 137.0)">a</text><text xml:space="preserve" font-family="Courier" font-size="16.9" fill="#333333" transform="matrix(1.00, 0.00, -0.00, -1.00, 254.9, 137.0)">!</text><text xml:space="preserve" font-family="Courier" font-size="16.9" fill="#333333" transform="matrix(1.00, 0.00, -0.00, -1.00, 265.0, 137.0)">=</text><text xml:space="preserve" font-family="Courier" font-size="16.9" fill="#333333" transform="matrix(1.00, 0.00, -0.00, -1.00, 275.2, 137.0)">b</text><text xml:space="preserve" font-family="Courier" font-size="16.9" fill="#333333" transform="matrix(1.00, 0.00, -0.00, -1.00, 285.3, 137.0)">)</text><text xml:space="preserve" font-family="Courier" font-size="16.9" fill="#333333" transform="matrix(1.00, 0.00, -0.00, -1.00, 295.5, 137.0)"> </text><text xml:space="preserve" font-family="Courier" font-size="16.9" fill="#333333" transform="matrix(1.00, 0.00, -0.00, -1.00, 305.6, 137.0)">&lt;</text><text xml:space="preserve" font-family="Courier" font-size="16.9" fill="#333333" transform="matrix(1.00, 0.00, -0.00, -1.00, 315.8, 137.0)">&lt;</text><text xml:space="preserve" font-family="Courier" font-size="16.9" fill="#333333" transform="matrix(1.00, 0.00, -0.00, -1.00, 325.9, 137.0)"> </text><text xml:space="preserve" font-family="Courier" font-size="16.9" fill="#333333" transform="matrix(1.00, 0.00, -0.00, -1.00, 336.1, 137.0)">e</text><text xml:space="preserve" font-family="Courier" font-size="16.9" fill="#333333" transform="matrix(1.00, 0.00, -0.00, -1.00, 346.2, 137.0)">n</text><text xml:space="preserve" font-family="Courier" font-size="16.9" fill="#333333" transform="matrix(1.00, 0.00, -0.00, -1.00, 356.4, 137.0)">d</text><text xml:space="preserve" font-family="Courier" font-size="16.9" fill="#333333" transform="matrix(1.00, 0.00, -0.00, -1.00, 366.6, 137.0)">l</text><text xml:space="preserve" font-family="Courier" font-size="16.9" fill="#333333" transform="matrix(1.00, 0.00, -0.00, -1.00, 376.7, 137.0)">;</text><text xml:space="preserve" font-family="Courier" font-size="16.9" fill="#333333" transform="matrix(1.00, 0.00, -0.00, -1.00, 386.9, 137.0)"> </text><text xml:space="preserve" font-family="Courier" font-size="16.9" fill="#F4871E" transform="matrix(1.00, 0.00, -0.00, -1.00, 1.0, 117.0)"> </text><text xml:space="preserve" font-family="Courier" font-size="16.9" fill="#F4871E" transform="matrix(1.00, 0.00, -0.00, -1.00, 11.2, 117.0)"> </text><text xml:space="preserve" font-family="Courier" font-size="16.9" fill="#F4871E" transform="matrix(1.00, 0.00, -0.00, -1.00, 21.3, 117.0)">c</text><text xml:space="preserve" font-family="Courier" font-size="16.9" fill="#F4871E" transform="matrix(1.00, 0.00, -0.00, -1.00, 31.5, 117.0)">o</text><text xml:space="preserve" font-family="Courier" font-size="16.9" fill="#F4871E" transform="matrix(1.00, 0.00, -0.00, -1.00, 41.6, 117.0)">u</text><text xml:space="preserve" font-family="Courier" font-size="16.9" fill="#F4871E" transform="matrix(1.00, 0.00, -0.00, -1.00, 51.8, 117.0)">t</text><text xml:space="preserve" font-family="Courier" font-size="16.9" fill="#333333" transform="matrix(1.00, 0.00, -0.00, -1.00, 61.9, 117.0)"> </text><text xml:space="preserve" font-family="Courier" font-size="16.9" fill="#333333" transform="matrix(1.00, 0.00, -0.00, -1.00, 72.1, 117.0)">&lt;</text><text xml:space="preserve" font-family="Courier" font-size="16.9" fill="#333333" transform="matrix(1.00, 0.00, -0.00, -1.00, 82.2, 117.0)">&lt;</text><text xml:space="preserve" font-family="Courier" font-size="16.9" fill="#333333" transform="matrix(1.00, 0.00, -0.00, -1.00, 92.4, 117.0)"> </text><text xml:space="preserve" font-family="Courier" font-size="16.9" fill="#718B00" transform="matrix(1.00, 0.00, -0.00, -1.00, 102.5, 117.0)">"</text><text xml:space="preserve" font-family="Courier" font-size="16.9" fill="#718B00" transform="matrix(1.00, 0.00, -0.00, -1.00, 112.7, 117.0)">a</text><text xml:space="preserve" font-family="Courier" font-size="16.9" fill="#718B00" transform="matrix(1.00, 0.00, -0.00, -1.00, 122.8, 117.0)">&gt;</text><text xml:space="preserve" font-family="Courier" font-size="16.9" fill="#718B00" transform="matrix(1.00, 0.00, -0.00, -1.00, 133.0, 117.0)">b</text><text xml:space="preserve" font-family="Courier" font-size="16.9" fill="#718B00" transform="matrix(1.00, 0.00, -0.00, -1.00, 143.2, 117.0)"> </text><text xml:space="preserve" font-family="Courier" font-size="16.9" fill="#718B00" transform="matrix(1.00, 0.00, -0.00, -1.00, 153.3, 117.0)">:</text><text xml:space="preserve" font-family="Courier" font-size="16.9" fill="#718B00" transform="matrix(1.00, 0.00, -0.00, -1.00, 163.5, 117.0)"> </text><text xml:space="preserve" font-family="Courier" font-size="16.9" fill="#718B00" transform="matrix(1.00, 0.00, -0.00, -1.00, 173.6, 117.0)">"</text><text xml:space="preserve" font-family="Courier" font-size="16.9" fill="#333333" transform="matrix(1.00, 0.00, -0.00, -1.00, 183.8, 117.0)"> </text><text xml:space="preserve" font-family="Courier" font-size="16.9" fill="#333333" transform="matrix(1.00, 0.00, -0.00, -1.00, 193.9, 117.0)">&lt;</text><text xml:space="preserve" font-family="Courier" font-size="16.9" fill="#333333" transform="matrix(1.00, 0.00, -0.00, -1.00, 204.1, 117.0)">&lt;</text><text xml:space="preserve" font-family="Courier" font-size="16.9" fill="#333333" transform="matrix(1.00, 0.00, -0.00, -1.00, 214.2, 117.0)"> </text><text xml:space="preserve" font-family="Courier" font-size="16.9" fill="#333333" transform="matrix(1.00, 0.00, -0.00, -1.00, 224.4, 117.0)">(</text><text xml:space="preserve" font-family="Courier" font-size="16.9" fill="#333333" transform="matrix(1.00, 0.00, -0.00, -1.00, 234.5, 117.0)">a</text><text xml:space="preserve" font-family="Courier" font-size="16.9" fill="#333333" transform="matrix(1.00, 0.00, -0.00, -1.00, 244.7, 117.0)">&gt;</text><text xml:space="preserve" font-family="Courier" font-size="16.9" fill="#333333" transform="matrix(1.00, 0.00, -0.00, -1.00, 254.9, 117.0)">b</text><text xml:space="preserve" font-family="Courier" font-size="16.9" fill="#333333" transform="matrix(1.00, 0.00, -0.00, -1.00, 265.0, 117.0)">)</text><text xml:space="preserve" font-family="Courier" font-size="16.9" fill="#333333" transform="matrix(1.00, 0.00, -0.00, -1.00, 275.2, 117.0)"> </text><text xml:space="preserve" font-family="Courier" font-size="16.9" fill="#333333" transform="matrix(1.00, 0.00, -0.00, -1.00, 285.3, 117.0)">&lt;</text><text xml:space="preserve" font-family="Courier" font-size="16.9" fill="#333333" transform="matrix(1.00, 0.00, -0.00, -1.00, 295.5, 117.0)">&lt;</text><text xml:space="preserve" font-family="Courier" font-size="16.9" fill="#333333" transform="matrix(1.00, 0.00, -0.00, -1.00, 305.6, 117.0)"> </text><text xml:space="preserve" font-family="Courier" font-size="16.9" fill="#333333" transform="matrix(1.00, 0.00, -0.00, -1.00, 315.8, 117.0)">e</text><text xml:space="preserve" font-family="Courier" font-size="16.9" fill="#333333" transform="matrix(1.00, 0.00, -0.00, -1.00, 325.9, 117.0)">n</text><text xml:space="preserve" font-family="Courier" font-size="16.9" fill="#333333" transform="matrix(1.00, 0.00, -0.00, -1.00, 336.1, 117.0)">d</text><text xml:space="preserve" font-family="Courier" font-size="16.9" fill="#333333" transform="matrix(1.00, 0.00, -0.00, -1.00, 346.3, 117.0)">l</text><text xml:space="preserve" font-family="Courier" font-size="16.9" fill="#333333" transform="matrix(1.00, 0.00, -0.00, -1.00, 356.4, 117.0)">;</text><text xml:space="preserve" font-family="Courier" font-size="16.9" fill="#333333" transform="matrix(1.00, 0.00, -0.00, -1.00, 366.6, 117.0)"> </text><text xml:space="preserve" font-family="Courier" font-size="16.9" fill="#F4871E" transform="matrix(1.00, 0.00, -0.00, -1.00, 1.0, 97.0)"> </text><text xml:space="preserve" font-family="Courier" font-size="16.9" fill="#F4871E" transform="matrix(1.00, 0.00, -0.00, -1.00, 11.2, 97.0)"> </text><text xml:space="preserve" font-family="Courier" font-size="16.9" fill="#F4871E" transform="matrix(1.00, 0.00, -0.00, -1.00, 21.3, 97.0)">c</text><text xml:space="preserve" font-family="Courier" font-size="16.9" fill="#F4871E" transform="matrix(1.00, 0.00, -0.00, -1.00, 31.5, 97.0)">o</text><text xml:space="preserve" font-family="Courier" font-size="16.9" fill="#F4871E" transform="matrix(1.00, 0.00, -0.00, -1.00, 41.6, 97.0)">u</text><text xml:space="preserve" font-family="Courier" font-size="16.9" fill="#F4871E" transform="matrix(1.00, 0.00, -0.00, -1.00, 51.8, 97.0)">t</text><text xml:space="preserve" font-family="Courier" font-size="16.9" fill="#333333" transform="matrix(1.00, 0.00, -0.00, -1.00, 61.9, 97.0)"> </text><text xml:space="preserve" font-family="Courier" font-size="16.9" fill="#333333" transform="matrix(1.00, 0.00, -0.00, -1.00, 72.1, 97.0)">&lt;</text><text xml:space="preserve" font-family="Courier" font-size="16.9" fill="#333333" transform="matrix(1.00, 0.00, -0.00, -1.00, 82.2, 97.0)">&lt;</text><text xml:space="preserve" font-family="Courier" font-size="16.9" fill="#333333" transform="matrix(1.00, 0.00, -0.00, -1.00, 92.4, 97.0)"> </text><text xml:space="preserve" font-family="Courier" font-size="16.9" fill="#718B00" transform="matrix(1.00, 0.00, -0.00, -1.00, 102.5, 97.0)">"</text><text xml:space="preserve" font-family="Courier" font-size="16.9" fill="#718B00" transform="matrix(1.00, 0.00, -0.00, -1.00, 112.7, 97.0)">a</text><text xml:space="preserve" font-family="Courier" font-size="16.9" fill="#718B00" transform="matrix(1.00, 0.00, -0.00, -1.00, 122.8, 97.0)">&gt;</text><text xml:space="preserve" font-family="Courier" font-size="16.9" fill="#718B00" transform="matrix(1.00, 0.00, -0.00, -1.00, 133.0, 97.0)">=</text><text xml:space="preserve" font-family="Courier" font-size="16.9" fill="#718B00" transform="matrix(1.00, 0.00, -0.00, -1.00, 143.2, 97.0)">b</text><text xml:space="preserve" font-family="Courier" font-size="16.9" fill="#718B00" transform="matrix(1.00, 0.00, -0.00, -1.00, 153.3, 97.0)"> </text><text xml:space="preserve" font-family="Courier" font-size="16.9" fill="#718B00" transform="matrix(1.00, 0.00, -0.00, -1.00, 163.5, 97.0)">:</text><text xml:space="preserve" font-family="Courier" font-size="16.9" fill="#718B00" transform="matrix(1.00, 0.00, -0.00, -1.00, 173.6, 97.0)"> </text><text xml:space="preserve" font-family="Courier" font-size="16.9" fill="#718B00" transform="matrix(1.00, 0.00, -0.00, -1.00, 183.8, 97.0)">"</text><text xml:space="preserve" font-family="Courier" font-size="16.9" fill="#333333" transform="matrix(1.00, 0.00, -0.00, -1.00, 193.9, 97.0)"> </text><text xml:space="preserve" font-family="Courier" font-size="16.9" fill="#333333" transform="matrix(1.00, 0.00, -0.00, -1.00, 204.1, 97.0)">&lt;</text><text xml:space="preserve" font-family="Courier" font-size="16.9" fill="#333333" transform="matrix(1.00, 0.00, -0.00, -1.00, 214.2, 97.0)">&lt;</text><text xml:space="preserve" font-family="Courier" font-size="16.9" fill="#333333" transform="matrix(1.00, 0.00, -0.00, -1.00, 224.4, 97.0)"> </text><text xml:space="preserve" font-family="Courier" font-size="16.9" fill="#333333" transform="matrix(1.00, 0.00, -0.00, -1.00, 234.5, 97.0)">(</text><text xml:space="preserve" font-family="Courier" font-size="16.9" fill="#333333" transform="matrix(1.00, 0.00, -0.00, -1.00, 244.7, 97.0)">a</text><text xml:space="preserve" font-family="Courier" font-size="16.9" fill="#333333" transform="matrix(1.00, 0.00, -0.00, -1.00, 254.9, 97.0)">&gt;</text><text xml:space="preserve" font-family="Courier" font-size="16.9" fill="#333333" transform="matrix(1.00, 0.00, -0.00, -1.00, 265.0, 97.0)">=</text><text xml:space="preserve" font-family="Courier" font-size="16.9" fill="#333333" transform="matrix(1.00, 0.00, -0.00, -1.00, 275.2, 97.0)">b</text><text xml:space="preserve" font-family="Courier" font-size="16.9" fill="#333333" transform="matrix(1.00, 0.00, -0.00, -1.00, 285.3, 97.0)">)</text><text xml:space="preserve" font-family="Courier" font-size="16.9" fill="#333333" transform="matrix(1.00, 0.00, -0.00, -1.00, 295.5, 97.0)"> </text><text xml:space="preserve" font-family="Courier" font-size="16.9" fill="#333333" transform="matrix(1.00, 0.00, -0.00, -1.00, 305.6, 97.0)">&lt;</text><text xml:space="preserve" font-family="Courier" font-size="16.9" fill="#333333" transform="matrix(1.00, 0.00, -0.00, -1.00, 315.8, 97.0)">&lt;</text><text xml:space="preserve" font-family="Courier" font-size="16.9" fill="#333333" transform="matrix(1.00, 0.00, -0.00, -1.00, 325.9, 97.0)"> </text><text xml:space="preserve" font-family="Courier" font-size="16.9" fill="#333333" transform="matrix(1.00, 0.00, -0.00, -1.00, 336.1, 97.0)">e</text><text xml:space="preserve" font-family="Courier" font-size="16.9" fill="#333333" transform="matrix(1.00, 0.00, -0.00, -1.00, 346.2, 97.0)">n</text><text xml:space="preserve" font-family="Courier" font-size="16.9" fill="#333333" transform="matrix(1.00, 0.00, -0.00, -1.00, 356.4, 97.0)">d</text><text xml:space="preserve" font-family="Courier" font-size="16.9" fill="#333333" transform="matrix(1.00, 0.00, -0.00, -1.00, 366.6, 97.0)">l</text><text xml:space="preserve" font-family="Courier" font-size="16.9" fill="#333333" transform="matrix(1.00, 0.00, -0.00, -1.00, 376.7, 97.0)">;</text><text xml:space="preserve" font-family="Courier" font-size="16.9" fill="#F4871E" transform="matrix(1.00, 0.00, -0.00, -1.00, 1.0, 77.0)"> </text><text xml:space="preserve" font-family="Courier" font-size="16.9" fill="#F4871E" transform="matrix(1.00, 0.00, -0.00, -1.00, 11.2, 77.0)"> </text><text xml:space="preserve" font-family="Courier" font-size="16.9" fill="#F4871E" transform="matrix(1.00, 0.00, -0.00, -1.00, 21.3, 77.0)">c</text><text xml:space="preserve" font-family="Courier" font-size="16.9" fill="#F4871E" transform="matrix(1.00, 0.00, -0.00, -1.00, 31.5, 77.0)">o</text><text xml:space="preserve" font-family="Courier" font-size="16.9" fill="#F4871E" transform="matrix(1.00, 0.00, -0.00, -1.00, 41.6, 77.0)">u</text><text xml:space="preserve" font-family="Courier" font-size="16.9" fill="#F4871E" transform="matrix(1.00, 0.00, -0.00, -1.00, 51.8, 77.0)">t</text><text xml:space="preserve" font-family="Courier" font-size="16.9" fill="#333333" transform="matrix(1.00, 0.00, -0.00, -1.00, 61.9, 77.0)"> </text><text xml:space="preserve" font-family="Courier" font-size="16.9" fill="#333333" transform="matrix(1.00, 0.00, -0.00, -1.00, 72.1, 77.0)">&lt;</text><text xml:space="preserve" font-family="Courier" font-size="16.9" fill="#333333" transform="matrix(1.00, 0.00, -0.00, -1.00, 82.2, 77.0)">&lt;</text><text xml:space="preserve" font-family="Courier" font-size="16.9" fill="#333333" transform="matrix(1.00, 0.00, -0.00, -1.00, 92.4, 77.0)"> </text><text xml:space="preserve" font-family="Courier" font-size="16.9" fill="#718B00" transform="matrix(1.00, 0.00, -0.00, -1.00, 102.5, 77.0)">"</text><text xml:space="preserve" font-family="Courier" font-size="16.9" fill="#718B00" transform="matrix(1.00, 0.00, -0.00, -1.00, 112.7, 77.0)">a</text><text xml:space="preserve" font-family="Courier" font-size="16.9" fill="#718B00" transform="matrix(1.00, 0.00, -0.00, -1.00, 122.8, 77.0)">&lt;</text><text xml:space="preserve" font-family="Courier" font-size="16.9" fill="#718B00" transform="matrix(1.00, 0.00, -0.00, -1.00, 133.0, 77.0)">b</text><text xml:space="preserve" font-family="Courier" font-size="16.9" fill="#718B00" transform="matrix(1.00, 0.00, -0.00, -1.00, 143.2, 77.0)"> </text><text xml:space="preserve" font-family="Courier" font-size="16.9" fill="#718B00" transform="matrix(1.00, 0.00, -0.00, -1.00, 153.3, 77.0)">:</text><text xml:space="preserve" font-family="Courier" font-size="16.9" fill="#718B00" transform="matrix(1.00, 0.00, -0.00, -1.00, 163.5, 77.0)"> </text><text xml:space="preserve" font-family="Courier" font-size="16.9" fill="#718B00" transform="matrix(1.00, 0.00, -0.00, -1.00, 173.6, 77.0)">"</text><text xml:space="preserve" font-family="Courier" font-size="16.9" fill="#333333" transform="matrix(1.00, 0.00, -0.00, -1.00, 183.8, 77.0)"> </text><text xml:space="preserve" font-family="Courier" font-size="16.9" fill="#333333" transform="matrix(1.00, 0.00, -0.00, -1.00, 193.9, 77.0)">&lt;</text><text xml:space="preserve" font-family="Courier" font-size="16.9" fill="#333333" transform="matrix(1.00, 0.00, -0.00, -1.00, 204.1, 77.0)">&lt;</text><text xml:space="preserve" font-family="Courier" font-size="16.9" fill="#333333" transform="matrix(1.00, 0.00, -0.00, -1.00, 214.2, 77.0)"> </text><text xml:space="preserve" font-family="Courier" font-size="16.9" fill="#333333" transform="matrix(1.00, 0.00, -0.00, -1.00, 224.4, 77.0)">(</text><text xml:space="preserve" font-family="Courier" font-size="16.9" fill="#333333" transform="matrix(1.00, 0.00, -0.00, -1.00, 234.5, 77.0)">a</text><text xml:space="preserve" font-family="Courier" font-size="16.9" fill="#333333" transform="matrix(1.00, 0.00, -0.00, -1.00, 244.7, 77.0)">&lt;</text><text xml:space="preserve" font-family="Courier" font-size="16.9" fill="#333333" transform="matrix(1.00, 0.00, -0.00, -1.00, 254.9, 77.0)">b</text><text xml:space="preserve" font-family="Courier" font-size="16.9" fill="#333333" transform="matrix(1.00, 0.00, -0.00, -1.00, 265.0, 77.0)">)</text><text xml:space="preserve" font-family="Courier" font-size="16.9" fill="#333333" transform="matrix(1.00, 0.00, -0.00, -1.00, 275.2, 77.0)"> </text><text xml:space="preserve" font-family="Courier" font-size="16.9" fill="#333333" transform="matrix(1.00, 0.00, -0.00, -1.00, 285.3, 77.0)">&lt;</text><text xml:space="preserve" font-family="Courier" font-size="16.9" fill="#333333" transform="matrix(1.00, 0.00, -0.00, -1.00, 295.5, 77.0)">&lt;</text><text xml:space="preserve" font-family="Courier" font-size="16.9" fill="#333333" transform="matrix(1.00, 0.00, -0.00, -1.00, 305.6, 77.0)"> </text><text xml:space="preserve" font-family="Courier" font-size="16.9" fill="#333333" transform="matrix(1.00, 0.00, -0.00, -1.00, 315.8, 77.0)">e</text><text xml:space="preserve" font-family="Courier" font-size="16.9" fill="#333333" transform="matrix(1.00, 0.00, -0.00, -1.00, 325.9, 77.0)">n</text><text xml:space="preserve" font-family="Courier" font-size="16.9" fill="#333333" transform="matrix(1.00, 0.00, -0.00, -1.00, 336.1, 77.0)">d</text><text xml:space="preserve" font-family="Courier" font-size="16.9" fill="#333333" transform="matrix(1.00, 0.00, -0.00, -1.00, 346.3, 77.0)">l</text><text xml:space="preserve" font-family="Courier" font-size="16.9" fill="#333333" transform="matrix(1.00, 0.00, -0.00, -1.00, 356.4, 77.0)">;</text><text xml:space="preserve" font-family="Courier" font-size="16.9" fill="#333333" transform="matrix(1.00, 0.00, -0.00, -1.00, 366.6, 77.0)"> </text><text xml:space="preserve" font-family="Courier" font-size="16.9" fill="#F4871E" transform="matrix(1.00, 0.00, -0.00, -1.00, 1.0, 57.0)"> </text><text xml:space="preserve" font-family="Courier" font-size="16.9" fill="#F4871E" transform="matrix(1.00, 0.00, -0.00, -1.00, 11.2, 57.0)"> </text><text xml:space="preserve" font-family="Courier" font-size="16.9" fill="#F4871E" transform="matrix(1.00, 0.00, -0.00, -1.00, 21.3, 57.0)">c</text><text xml:space="preserve" font-family="Courier" font-size="16.9" fill="#F4871E" transform="matrix(1.00, 0.00, -0.00, -1.00, 31.5, 57.0)">o</text><text xml:space="preserve" font-family="Courier" font-size="16.9" fill="#F4871E" transform="matrix(1.00, 0.00, -0.00, -1.00, 41.6, 57.0)">u</text><text xml:space="preserve" font-family="Courier" font-size="16.9" fill="#F4871E" transform="matrix(1.00, 0.00, -0.00, -1.00, 51.8, 57.0)">t</text><text xml:space="preserve" font-family="Courier" font-size="16.9" fill="#333333" transform="matrix(1.00, 0.00, -0.00, -1.00, 61.9, 57.0)"> </text><text xml:space="preserve" font-family="Courier" font-size="16.9" fill="#333333" transform="matrix(1.00, 0.00, -0.00, -1.00, 72.1, 57.0)">&lt;</text><text xml:space="preserve" font-family="Courier" font-size="16.9" fill="#333333" transform="matrix(1.00, 0.00, -0.00, -1.00, 82.2, 57.0)">&lt;</text><text xml:space="preserve" font-family="Courier" font-size="16.9" fill="#333333" transform="matrix(1.00, 0.00, -0.00, -1.00, 92.4, 57.0)"> </text><text xml:space="preserve" font-family="Courier" font-size="16.9" fill="#718B00" transform="matrix(1.00, 0.00, -0.00, -1.00, 102.5, 57.0)">"</text><text xml:space="preserve" font-family="Courier" font-size="16.9" fill="#718B00" transform="matrix(1.00, 0.00, -0.00, -1.00, 112.7, 57.0)">a</text><text xml:space="preserve" font-family="Courier" font-size="16.9" fill="#718B00" transform="matrix(1.00, 0.00, -0.00, -1.00, 122.8, 57.0)">&lt;</text><text xml:space="preserve" font-family="Courier" font-size="16.9" fill="#718B00" transform="matrix(1.00, 0.00, -0.00, -1.00, 133.0, 57.0)">=</text><text xml:space="preserve" font-family="Courier" font-size="16.9" fill="#718B00" transform="matrix(1.00, 0.00, -0.00, -1.00, 143.2, 57.0)">b</text><text xml:space="preserve" font-family="Courier" font-size="16.9" fill="#718B00" transform="matrix(1.00, 0.00, -0.00, -1.00, 153.3, 57.0)"> </text><text xml:space="preserve" font-family="Courier" font-size="16.9" fill="#718B00" transform="matrix(1.00, 0.00, -0.00, -1.00, 163.5, 57.0)">:</text><text xml:space="preserve" font-family="Courier" font-size="16.9" fill="#718B00" transform="matrix(1.00, 0.00, -0.00, -1.00, 173.6, 57.0)"> </text><text xml:space="preserve" font-family="Courier" font-size="16.9" fill="#718B00" transform="matrix(1.00, 0.00, -0.00, -1.00, 183.8, 57.0)">"</text><text xml:space="preserve" font-family="Courier" font-size="16.9" fill="#333333" transform="matrix(1.00, 0.00, -0.00, -1.00, 193.9, 57.0)"> </text><text xml:space="preserve" font-family="Courier" font-size="16.9" fill="#333333" transform="matrix(1.00, 0.00, -0.00, -1.00, 204.1, 57.0)">&lt;</text><text xml:space="preserve" font-family="Courier" font-size="16.9" fill="#333333" transform="matrix(1.00, 0.00, -0.00, -1.00, 214.2, 57.0)">&lt;</text><text xml:space="preserve" font-family="Courier" font-size="16.9" fill="#333333" transform="matrix(1.00, 0.00, -0.00, -1.00, 224.4, 57.0)"> </text><text xml:space="preserve" font-family="Courier" font-size="16.9" fill="#333333" transform="matrix(1.00, 0.00, -0.00, -1.00, 234.5, 57.0)">(</text><text xml:space="preserve" font-family="Courier" font-size="16.9" fill="#333333" transform="matrix(1.00, 0.00, -0.00, -1.00, 244.7, 57.0)">a</text><text xml:space="preserve" font-family="Courier" font-size="16.9" fill="#333333" transform="matrix(1.00, 0.00, -0.00, -1.00, 254.9, 57.0)">&lt;</text><text xml:space="preserve" font-family="Courier" font-size="16.9" fill="#333333" transform="matrix(1.00, 0.00, -0.00, -1.00, 265.0, 57.0)">=</text><text xml:space="preserve" font-family="Courier" font-size="16.9" fill="#333333" transform="matrix(1.00, 0.00, -0.00, -1.00, 275.2, 57.0)">b</text><text xml:space="preserve" font-family="Courier" font-size="16.9" fill="#333333" transform="matrix(1.00, 0.00, -0.00, -1.00, 285.3, 57.0)">)</text><text xml:space="preserve" font-family="Courier" font-size="16.9" fill="#333333" transform="matrix(1.00, 0.00, -0.00, -1.00, 295.5, 57.0)"> </text><text xml:space="preserve" font-family="Courier" font-size="16.9" fill="#333333" transform="matrix(1.00, 0.00, -0.00, -1.00, 305.6, 57.0)">&lt;</text><text xml:space="preserve" font-family="Courier" font-size="16.9" fill="#333333" transform="matrix(1.00, 0.00, -0.00, -1.00, 315.8, 57.0)">&lt;</text><text xml:space="preserve" font-family="Courier" font-size="16.9" fill="#333333" transform="matrix(1.00, 0.00, -0.00, -1.00, 325.9, 57.0)"> </text><text xml:space="preserve" font-family="Courier" font-size="16.9" fill="#333333" transform="matrix(1.00, 0.00, -0.00, -1.00, 336.1, 57.0)">e</text><text xml:space="preserve" font-family="Courier" font-size="16.9" fill="#333333" transform="matrix(1.00, 0.00, -0.00, -1.00, 346.2, 57.0)">n</text><text xml:space="preserve" font-family="Courier" font-size="16.9" fill="#333333" transform="matrix(1.00, 0.00, -0.00, -1.00, 356.4, 57.0)">d</text><text xml:space="preserve" font-family="Courier" font-size="16.9" fill="#333333" transform="matrix(1.00, 0.00, -0.00, -1.00, 366.6, 57.0)">l</text><text xml:space="preserve" font-family="Courier" font-size="16.9" fill="#333333" transform="matrix(1.00, 0.00, -0.00, -1.00, 376.7, 57.0)">;</text><text xml:space="preserve" font-family="Courier" font-size="16.9" fill="#333333" transform="matrix(1.00, 0.00, -0.00, -1.00, 386.9, 57.0)"> </text><text xml:space="preserve" font-family="Courier" font-size="16.9" fill="#8858A7" transform="matrix(1.00, 0.00, -0.00, -1.00, 1.0, 37.0)"> </text><text xml:space="preserve" font-family="Courier" font-size="16.9" fill="#8858A7" transform="matrix(1.00, 0.00, -0.00, -1.00, 11.2, 37.0)"> </text><text xml:space="preserve" font-family="Courier" font-size="16.9" fill="#8858A7" transform="matrix(1.00, 0.00, -0.00, -1.00, 21.3, 37.0)">r</text><text xml:space="preserve" font-family="Courier" font-size="16.9" fill="#8858A7" transform="matrix(1.00, 0.00, -0.00, -1.00, 31.5, 37.0)">e</text><text xml:space="preserve" font-family="Courier" font-size="16.9" fill="#8858A7" transform="matrix(1.00, 0.00, -0.00, -1.00, 41.6, 37.0)">t</text><text xml:space="preserve" font-family="Courier" font-size="16.9" fill="#8858A7" transform="matrix(1.00, 0.00, -0.00, -1.00, 51.8, 37.0)">u</text><text xml:space="preserve" font-family="Courier" font-size="16.9" fill="#8858A7" transform="matrix(1.00, 0.00, -0.00, -1.00, 61.9, 37.0)">r</text><text xml:space="preserve" font-family="Courier" font-size="16.9" fill="#8858A7" transform="matrix(1.00, 0.00, -0.00, -1.00, 72.1, 37.0)">n</text><text xml:space="preserve" font-family="Courier" font-size="16.9" fill="#333333" transform="matrix(1.00, 0.00, -0.00, -1.00, 82.2, 37.0)"> </text><text xml:space="preserve" font-family="Courier" font-size="16.9" fill="#F4871E" transform="matrix(1.00, 0.00, -0.00, -1.00, 92.4, 37.0)">0</text><text xml:space="preserve" font-family="Courier" font-size="16.9" fill="#333333" transform="matrix(1.00, 0.00, -0.00, -1.00, 102.5, 37.0)">;</text><text xml:space="preserve" font-family="Courier" font-size="16.9" fill="#333333" transform="matrix(1.00, 0.00, -0.00, -1.00, 112.7, 37.0)"> </text><text xml:space="preserve" font-family="Courier" font-size="16.9" fill="#333333" transform="matrix(1.00, 0.00, -0.00, -1.00, 1.0, 15.0)">}</text><text xml:space="preserve" font-family="CenturyGothic" font-size="16.9" fill="#000000" transform="matrix(1.00, 0.00, -0.00, -1.00, 11.2, 15.0)"> </text></g></g></g></svg>