<?xml version="1.0" encoding="UTF-8" standalone="no"?><svg xmlns="http://www.w3.org/2000/svg" xmlns:xlink="http://www.w3.org/1999/xlink" clip-rule="evenodd" stroke-miterlimit="4.00" viewBox="0 0 227 525"><desc>SVG generated by Keynote</desc><defs></defs><g transform="matrix(1.00, 0.00, -0.00, -1.00, 0.0, 525.0)"><g><clipPath id="clip-485"><path d="M 0.0 288.9 L 9.9 288.9 L 9.9 340.2 L 0.0 340.2 Z M 0.0 288.9 "></path></clipPath><g clip-path="url(#clip-485)"><path d="M 8.9 289.9 C 8.2 296.8 7.8 303.3 7.1 310.2 C 5.0 319.7 3.2 329.5 1.0 339.2 C 1.0 326.6 1.0 326.6 1.0 326.6 C 3.2 316.0 5.7 305.2 8.2 294.3 C 8.2 292.8 8.6 291.4 8.9 289.9 Z M 8.9 289.9 " fill="#766E54" fill-opacity="0.20"></path></g></g><g><clipPath id="clip-486"><path d="M 10.1 109.6 L 63.0 109.6 L 63.0 294.5 L 10.1 294.5 Z M 10.1 109.6 "></path></clipPath><g clip-path="url(#clip-486)"><path d="M 42.4 166.5 C 48.6 147.6 54.8 129.1 61.7 110.6 C 61.7 113.9 61.7 116.8 62.0 120.0 C 56.2 135.6 50.8 151.6 45.7 167.6 C 32.2 208.9 20.9 251.0 11.1 293.5 C 11.9 286.2 12.6 278.6 13.3 271.3 C 22.0 236.1 31.5 200.9 42.4 166.5 Z M 42.4 166.5 " fill="#766E54" fill-opacity="0.20"></path></g></g><g><clipPath id="clip-487"><path d="M 63.5 0.3 L 113.5 0.3 L 113.5 114.1 L 63.5 114.1 Z M 63.5 0.3 "></path></clipPath><g clip-path="url(#clip-487)"><path d="M 67.5 105.1 C 66.4 107.7 65.3 110.2 64.5 113.1 C 64.5 109.5 64.5 106.2 64.5 102.6 C 72.2 82.2 80.5 62.3 89.3 42.7 C 95.4 28.9 102.4 15.1 109.3 1.3 C 112.5 1.3 112.5 1.3 112.5 1.3 C 105.6 15.4 98.7 29.6 92.5 44.1 C 83.4 64.1 75.1 84.4 67.5 105.1 Z M 67.5 105.1 " fill="#766E54" fill-opacity="0.20"></path></g></g><g><clipPath id="clip-488"><path d="M 75.6 0.3 L 91.1 0.3 L 91.1 30.9 L 75.6 30.9 Z M 75.6 0.3 "></path></clipPath><g clip-path="url(#clip-488)"><path d="M 86.8 1.3 C 90.1 1.3 90.1 1.3 90.1 1.3 C 85.3 10.7 81.0 20.1 76.6 29.9 C 79.5 20.1 82.8 10.7 86.8 1.3 Z M 86.8 1.3 " fill="#766E54" fill-opacity="0.20"></path></g></g><g><clipPath id="clip-489"><path d="M 7.9 26.8 L 74.6 26.8 L 74.6 290.9 L 7.9 290.9 Z M 7.9 26.8 "></path></clipPath><g clip-path="url(#clip-489)"><path d="M 67.8 50.3 C 61.6 65.6 56.2 80.8 51.1 96.1 C 39.5 131.3 30.4 167.6 23.5 204.3 C 19.5 226.4 16.2 248.9 13.3 271.4 C 11.8 277.6 10.4 283.8 8.9 289.9 C 11.8 261.3 15.8 232.2 20.9 203.9 C 27.5 166.9 36.6 130.6 47.8 95.0 C 53.6 77.2 60.2 59.8 67.1 42.7 C 69.3 37.6 71.5 32.9 73.6 27.8 C 72.9 29.7 72.6 31.1 72.2 32.9 C 70.4 38.7 68.9 44.5 67.8 50.3 Z M 67.8 50.3 " fill="#766E54" fill-opacity="0.20"></path></g></g><g><clipPath id="clip-490"><path d="M 2.1 292.5 L 12.1 292.5 L 12.1 525.0 L 2.1 525.0 Z M 2.1 292.5 "></path></clipPath><g clip-path="url(#clip-490)"><path d="M 6.8 314.5 C 7.1 313.1 7.1 311.6 7.1 310.2 C 8.2 305.1 9.7 300.0 10.8 294.5 C 10.8 294.2 10.8 293.8 11.1 293.5 C 10.4 300.7 9.7 307.6 8.9 314.9 C 6.0 351.9 4.6 388.9 4.6 426.3 C 4.9 459.0 6.0 491.3 8.2 524.0 C 7.1 524.0 7.1 524.0 7.1 524.0 C 4.6 491.7 3.5 459.0 3.1 426.3 C 2.8 388.9 3.9 351.9 6.8 314.5 Z M 6.8 314.5 " fill="#766E54" fill-opacity="0.20"></path></g></g><g><clipPath id="clip-491"><path d="M 6.2 270.3 L 14.3 270.3 L 14.3 311.2 L 6.2 311.2 Z M 6.2 270.3 "></path></clipPath><g clip-path="url(#clip-491)"><path d="M 7.2 310.2 C 7.9 303.3 8.3 296.7 9.0 289.8 C 10.4 283.7 11.9 277.5 13.3 271.3 C 12.6 278.6 11.9 286.2 11.2 293.5 C 10.8 293.8 10.8 294.2 10.8 294.6 C 9.7 300.0 8.3 305.1 7.2 310.2 Z M 7.2 310.2 " fill="#766E54" fill-opacity="0.20"></path></g></g><g><clipPath id="clip-492"><path d="M 60.6 28.9 L 77.6 28.9 L 77.6 111.6 L 60.6 111.6 Z M 60.6 28.9 "></path></clipPath><g clip-path="url(#clip-492)"><path d="M 61.6 110.6 C 61.6 99.3 62.3 88.1 63.4 76.8 C 64.5 68.1 66.0 59.0 67.8 50.2 C 68.5 48.1 69.6 45.9 70.4 43.7 C 72.6 39.0 74.4 34.6 76.6 29.9 C 76.2 31.0 75.8 32.4 75.5 33.5 C 71.1 48.1 68.2 62.6 66.4 77.2 C 65.6 85.9 64.9 94.2 64.5 102.6 C 64.5 103.0 64.2 103.3 64.2 104.1 C 63.4 106.2 62.3 108.4 61.6 110.6 Z M 61.6 110.6 " fill="#766E54" fill-opacity="0.20"></path></g></g><g><clipPath id="clip-493"><path d="M 61.0 112.1 L 226.5 112.1 L 226.5 432.8 L 61.0 432.8 Z M 61.0 112.1 "></path></clipPath><g clip-path="url(#clip-493)"><path d="M 64.6 121.8 C 65.7 151.6 71.5 181.0 80.2 209.3 C 89.3 237.6 101.6 264.8 116.2 291.0 C 130.7 317.1 147.4 341.8 165.6 365.4 C 174.7 377.0 184.5 388.6 194.3 399.5 C 199.4 405.0 204.5 410.8 209.5 415.9 C 215.0 421.3 220.1 426.4 225.5 431.5 C 225.5 431.8 225.5 431.8 225.5 431.8 C 219.7 426.8 214.6 421.7 209.2 416.2 C 204.1 411.1 199.0 405.7 193.9 399.9 C 183.8 389.0 173.9 377.7 164.9 366.1 C 146.3 342.5 129.3 317.8 114.7 291.7 C 99.8 265.9 87.5 238.3 78.4 210.0 C 69.0 181.3 63.1 151.9 62.0 121.8 C 62.0 121.1 62.0 120.7 62.0 120.0 C 62.8 117.8 63.5 115.3 64.6 113.1 C 64.6 116.0 64.6 118.9 64.6 121.8 Z M 64.6 121.8 " fill="#766E54" fill-opacity="0.20"></path></g></g><g><clipPath id="clip-494"><path d="M 72.6 0.3 L 87.4 0.3 L 87.4 28.8 L 72.6 28.8 Z M 72.6 0.3 "></path></clipPath><g clip-path="url(#clip-494)"><path d="M 73.6 27.8 C 76.2 19.1 79.5 10.0 83.1 1.3 C 86.4 1.3 86.4 1.3 86.4 1.3 C 82.0 10.0 77.7 19.1 73.6 27.8 Z M 73.6 27.8 " fill="#766E54" fill-opacity="0.20"></path></g></g><g><clipPath id="clip-495"><path d="M 60.6 101.5 L 65.5 101.5 L 65.5 121.0 L 60.6 121.0 Z M 60.6 101.5 "></path></clipPath><g clip-path="url(#clip-495)"><path d="M 64.2 104.0 C 64.2 103.3 64.5 102.9 64.5 102.5 C 64.5 106.2 64.5 109.4 64.5 113.1 C 63.4 115.3 62.7 117.8 62.0 120.0 C 61.6 116.7 61.6 113.8 61.6 110.5 C 62.3 108.4 63.4 106.2 64.2 104.0 Z M 64.2 104.0 " fill="#766E54" fill-opacity="0.20"></path></g></g><g><clipPath id="clip-496"><path d="M 66.9 0.3 L 87.7 0.3 L 87.7 51.3 L 66.9 51.3 Z M 66.9 0.3 "></path></clipPath><g clip-path="url(#clip-496)"><path d="M 70.4 43.8 C 69.7 45.9 68.6 48.1 67.9 50.3 C 69.0 44.5 70.4 38.7 72.3 32.9 C 72.6 31.0 73.0 29.6 73.7 27.8 C 77.7 19.1 82.0 10.0 86.3 1.3 C 86.7 1.3 86.7 1.3 86.7 1.3 C 82.7 10.7 79.5 20.2 76.6 30.0 C 74.4 34.7 72.6 39.0 70.4 43.8 Z M 70.4 43.8 " fill="#766E54" fill-opacity="0.20"></path></g></g></g></svg>