<?xml version="1.0" encoding="UTF-8" standalone="no"?><svg xmlns="http://www.w3.org/2000/svg" xmlns:xlink="http://www.w3.org/1999/xlink" clip-rule="evenodd" stroke-miterlimit="4.00" viewBox="0 0 709 591"><desc>SVG generated by Keynote</desc><defs></defs><g transform="matrix(1.00, 0.00, -0.00, -1.00, 0.0, 591.0)"><image xlink:href="../../8D60CEA2-AB3D-4234-8961-CE283CC4EB78/assets/FF85E8BB6E4825A8A819E77581763354.png" width="707.00" height="568.00" transform="matrix(1.00, 0.00, -0.00, -1.00, 1.2, 569.3)" opacity="0.70"></image><g><clipPath id="clip-11"><path d="M 21.0 559.0 L 688.0 559.0 L 688.0 32.0 L 21.0 32.0 Z M 21.2 559.3 "></path></clipPath><g clip-path="url(#clip-11)"><g><clipPath id="clip-12"><path d="M 21.0 -144.0 L 21.0 -127.0 L 354.5 -127.0 L 688.0 -127.0 L 688.0 -143.9 L 688.0 -161.0 L 354.5 -161.0 L 21.0 -161.0 L 21.0 -144.0 M 476.7 119.0 C 447.2 121.3 397.8 130.3 339.5 144.0 C 323.1 147.9 299.9 153.3 287.8 156.1 C 275.8 159.0 266.0 161.9 266.2 162.7 C 266.3 163.5 264.9 164.4 262.9 164.6 C 253.0 165.9 233.0 169.6 223.1 171.9 C 195.4 178.5 172.9 183.7 137.2 191.5 C 116.0 196.2 97.4 200.3 95.7 200.8 C 92.9 201.5 93.0 201.9 99.1 212.2 C 102.6 218.1 107.0 225.8 109.0 229.2 C 110.9 232.7 119.1 247.1 127.1 261.4 C 145.5 293.8 145.9 294.5 154.0 308.9 C 161.4 322.2 183.6 361.5 187.9 369.0 C 189.4 371.7 197.4 385.8 205.6 400.4 C 238.0 457.9 246.3 472.6 259.8 496.1 L 273.9 521.0 L 281.4 520.0 C 289.0 519.6 297.1 518.4 339.8 509.4 C 362.2 504.8 460.9 486.2 499.1 479.5 C 518.7 476.1 559.0 468.5 589.5 462.4 L 612.1 458.0 L 607.8 446.0 C 601.4 427.8 586.4 384.9 578.0 360.6 C 573.9 348.7 566.4 327.0 561.2 312.4 C 556.1 297.8 550.4 281.5 548.6 276.2 C 546.8 270.9 545.6 266.1 545.9 265.5 C 546.3 264.9 544.2 254.2 541.2 241.6 C 538.2 229.0 533.1 206.2 529.8 190.8 C 523.4 160.2 518.8 144.7 511.2 128.2 L 506.2 117.0 L 498.8 118.0 C 494.7 118.1 484.8 118.3 476.7 119.0 M 114.0 780.0 L 108.0 780.0 L 108.0 785.1 C 108.5 788.0 109.2 791.1 109.2 792.0 C 109.2 793.2 111.5 793.8 116.1 793.8 C 121.6 793.8 123.0 793.3 123.6 791.1 C 124.0 789.6 123.8 787.9 123.1 787.3 C 122.5 786.6 121.8 784.5 121.6 782.6 C 121.1 779.4 120.6 779.1 114.3 779.5 M 68.0 781.0 C 64.2 782.2 64.5 786.9 68.5 788.4 C 70.2 789.0 71.4 790.1 71.0 790.7 C 70.6 791.3 72.6 791.8 75.5 791.9 C 80.5 791.9 80.7 791.7 80.1 787.9 C 79.6 784.3 79.4 784.2 77.8 786.3 C 76.2 788.5 75.8 788.3 73.7 784.3 C 72.5 781.8 71.3 779.9 71.1 780.0 C 70.9 780.0 69.5 780.5 68.0 781.0 M 131.6 784.5 C 131.6 786.2 130.8 788.4 129.9 789.3 C 128.8 790.4 128.8 791.0 129.7 791.0 C 130.6 791.0 131.9 790.2 132.8 789.1 C 134.8 786.8 139.8 787.1 141.5 789.7 C 142.9 792.0 143.1 790.3 141.9 785.7 C 141.4 783.9 140.3 782.7 139.4 783.0 C 138.6 783.4 136.5 783.1 134.7 782.4 C 132.1 781.5 131.6 781.7 131.6 784.5 M 156.2 785.1 C 155.0 787.5 154.5 789.8 155.2 790.2 C 155.9 790.6 156.8 790.0 157.3 788.7 C 158.0 786.9 158.6 786.8 160.3 788.2 C 163.0 790.5 163.1 787.0 160.4 783.3 C 158.6 780.8 158.4 780.9 156.2 785.1 M 223.8 786.0 C 223.8 791.4 225.3 793.0 229.3 791.7 C 235.0 789.9 232.5 781.2 226.1 781.2 C 224.4 781.2 223.8 782.5 223.8 786.0 M 238.7 783.2 C 236.4 789.3 242.9 794.5 247.6 790.3 C 250.0 788.1 250.1 787.6 248.0 784.5 C 245.6 780.9 239.9 780.0 238.7 783.2 M 273.6 783.4 C 272.1 784.4 270.4 785.5 269.8 785.7 C 269.1 785.9 269.5 787.6 270.0 789.5 L 270.0 792.9 L 271.6 789.6 C 272.7 786.5 272.9 786.5 275.6 788.9 C 278.3 791.4 278.3 791.4 277.4 786.7 C 276.9 784.1 276.4 781.8 276.4 781.7 C 276.3 781.5 275.0 782.3 273.6 783.4 M 306.8 783.3 C 305.6 786.2 310.0 792.4 313.1 792.4 C 316.5 792.4 317.7 789.1 316.0 784.7 C 314.5 780.7 308.1 779.8 306.8 783.3 M 332.1 782.9 C 331.6 784.3 332.1 786.6 333.4 788.4 C 335.4 791.4 335.6 791.4 335.5 788.9 C 335.5 787.3 334.9 784.8 334.3 783.3 C 333.2 780.8 333.0 780.7 332.1 782.9 M 89.9 784.5 C 85.6 786.4 86.3 789.2 92.0 792.2 C 95.8 794.2 97.1 794.2 95.9 792.3 C 95.4 791.5 95.9 789.8 97.1 788.4 C 99.1 786.3 99.0 785.9 96.1 784.6 C 94.0 783.6 91.9 783.6 89.9 784.5 M 172.6 785.3 C 173.7 786.5 174.3 788.2 174.0 789.1 C 173.6 789.9 174.4 791.0 175.6 791.5 C 177.1 792.1 178.2 791.2 179.1 788.8 C 181.1 783.6 180.8 781.7 178.5 784.8 C 176.8 787.1 176.4 787.2 175.6 785.3 C 175.2 784.1 173.9 783.1 172.7 783.1 C 171.0 783.1 171.0 783.4 172.6 785.3 M 210.6 783.9 C 210.2 784.6 210.3 785.5 211.0 785.9 C 211.6 786.3 212.2 785.8 212.2 784.6 C 212.2 782.3 211.7 782.1 210.6 783.9 M 323.9 787.0 C 325.1 793.0 325.3 793.3 326.2 789.0 C 326.5 786.9 326.0 784.8 324.9 783.8 C 323.4 782.5 323.2 783.1 323.9 787.0 M 293.8 786.2 C 293.9 787.8 294.2 788.2 294.6 787.1 C 295.0 786.1 295.0 784.8 294.5 784.4 C 294.1 783.9 293.7 784.7 293.8 786.2 M 200.3 786.7 C 198.1 788.0 199.7 792.4 202.3 792.4 C 204.4 792.4 205.0 787.4 203.1 786.3 C 202.5 785.9 201.2 786.1 200.3 786.7 M 212.6 790.3 C 212.6 791.4 213.7 792.4 214.9 792.4 C 216.8 792.4 216.9 792.0 215.4 790.3 C 214.5 789.1 213.5 788.2 213.2 788.2 C 212.9 788.2 212.6 789.1 212.6 790.3 "></path></clipPath><g clip-path="url(#clip-12)"><image xlink:href="../../8D60CEA2-AB3D-4234-8961-CE283CC4EB78/assets/C7410A8E04CBBA9A95297ACF28699241.jpeg" width="525.00" height="768.00" transform="matrix(1.27, 0.00, -0.00, -1.27, 21.0, 813.0)"></image></g></g></g></g></g></svg>