<?xml version="1.0" encoding="UTF-8" standalone="no"?><svg xmlns="http://www.w3.org/2000/svg" xmlns:xlink="http://www.w3.org/1999/xlink" clip-rule="evenodd" stroke-miterlimit="4.00" viewBox="0 0 490 201"><desc>SVG generated by Keynote</desc><defs></defs><g transform="matrix(1.00, 0.00, -0.00, -1.00, 0.0, 201.0)"><path d="M 1.8 199.9 L 488.8 199.9 L 488.8 1.5 L 1.8 1.5 Z M 1.8 199.9 " fill="#BFBFBF"></path><g><clipPath id="clip-1041"><path d="M -3.9 -4.2 L 965.8 -4.2 L 965.8 204.4 L -3.9 204.4 Z M -3.9 -4.2 "></path></clipPath><g clip-path="url(#clip-1041)"><text xml:space="preserve" font-family="Courier" font-size="18.0" fill="#8858A7" transform="matrix(1.00, 0.00, -0.00, -1.00, 2.0, 182.0)">i</text><text xml:space="preserve" font-family="Courier" font-size="18.0" fill="#8858A7" transform="matrix(1.00, 0.00, -0.00, -1.00, 12.8, 182.0)">n</text><text xml:space="preserve" font-family="Courier" font-size="18.0" fill="#8858A7" transform="matrix(1.00, 0.00, -0.00, -1.00, 23.6, 182.0)">t</text><text xml:space="preserve" font-family="Courier" font-size="18.0" fill="#333333" transform="matrix(1.00, 0.00, -0.00, -1.00, 34.4, 182.0)"> </text><text xml:space="preserve" font-family="Courier" font-size="18.0" fill="#333333" transform="matrix(1.00, 0.00, -0.00, -1.00, 45.2, 182.0)">m</text><text xml:space="preserve" font-family="Courier" font-size="18.0" fill="#333333" transform="matrix(1.00, 0.00, -0.00, -1.00, 56.0, 182.0)">a</text><text xml:space="preserve" font-family="Courier" font-size="18.0" fill="#333333" transform="matrix(1.00, 0.00, -0.00, -1.00, 66.8, 182.0)">i</text><text xml:space="preserve" font-family="Courier" font-size="18.0" fill="#333333" transform="matrix(1.00, 0.00, -0.00, -1.00, 77.6, 182.0)">n</text><text xml:space="preserve" font-family="Courier" font-size="18.0" fill="#333333" transform="matrix(1.00, 0.00, -0.00, -1.00, 88.4, 182.0)">(</text><text xml:space="preserve" font-family="Courier" font-size="18.0" fill="#333333" transform="matrix(1.00, 0.00, -0.00, -1.00, 99.2, 182.0)">)</text><text xml:space="preserve" font-family="Courier" font-size="18.0" fill="#333333" transform="matrix(1.00, 0.00, -0.00, -1.00, 2.0, 160.0)">{</text><text xml:space="preserve" font-family="Courier" font-size="18.0" fill="#333333" transform="matrix(1.00, 0.00, -0.00, -1.00, 12.8, 160.0)"> </text><text xml:space="preserve" font-family="Courier" font-size="18.0" fill="#8858A7" transform="matrix(1.00, 0.00, -0.00, -1.00, 2.0, 138.0)"> </text><text xml:space="preserve" font-family="Courier" font-size="18.0" fill="#8858A7" transform="matrix(1.00, 0.00, -0.00, -1.00, 12.8, 138.0)"> </text><text xml:space="preserve" font-family="Courier" font-size="18.0" fill="#8858A7" transform="matrix(1.00, 0.00, -0.00, -1.00, 23.6, 138.0)"> </text><text xml:space="preserve" font-family="Courier" font-size="18.0" fill="#8858A7" transform="matrix(1.00, 0.00, -0.00, -1.00, 34.4, 138.0)">i</text><text xml:space="preserve" font-family="Courier" font-size="18.0" fill="#8858A7" transform="matrix(1.00, 0.00, -0.00, -1.00, 45.2, 138.0)">n</text><text xml:space="preserve" font-family="Courier" font-size="18.0" fill="#8858A7" transform="matrix(1.00, 0.00, -0.00, -1.00, 56.0, 138.0)">t</text><text xml:space="preserve" font-family="Courier" font-size="18.0" fill="#333333" transform="matrix(1.00, 0.00, -0.00, -1.00, 66.8, 138.0)"> </text><text xml:space="preserve" font-family="Courier" font-size="18.0" fill="#333333" transform="matrix(1.00, 0.00, -0.00, -1.00, 77.6, 138.0)">n</text><text xml:space="preserve" font-family="Courier" font-size="18.0" fill="#333333" transform="matrix(1.00, 0.00, -0.00, -1.00, 88.4, 138.0)">;</text><text xml:space="preserve" font-family="Courier" font-size="18.0" fill="#333333" transform="matrix(1.00, 0.00, -0.00, -1.00, 99.2, 138.0)"> </text><text xml:space="preserve" font-family="Courier" font-size="18.0" fill="#8858A7" transform="matrix(1.00, 0.00, -0.00, -1.00, 2.0, 116.0)"> </text><text xml:space="preserve" font-family="Courier" font-size="18.0" fill="#8858A7" transform="matrix(1.00, 0.00, -0.00, -1.00, 12.8, 116.0)"> </text><text xml:space="preserve" font-family="Courier" font-size="18.0" fill="#8858A7" transform="matrix(1.00, 0.00, -0.00, -1.00, 23.6, 116.0)"> </text><text xml:space="preserve" font-family="Courier" font-size="18.0" fill="#8858A7" transform="matrix(1.00, 0.00, -0.00, -1.00, 34.4, 116.0)">i</text><text xml:space="preserve" font-family="Courier" font-size="18.0" fill="#8858A7" transform="matrix(1.00, 0.00, -0.00, -1.00, 45.2, 116.0)">n</text><text xml:space="preserve" font-family="Courier" font-size="18.0" fill="#8858A7" transform="matrix(1.00, 0.00, -0.00, -1.00, 56.0, 116.0)">t</text><text xml:space="preserve" font-family="Courier" font-size="18.0" fill="#333333" transform="matrix(1.00, 0.00, -0.00, -1.00, 66.8, 116.0)"> </text><text xml:space="preserve" font-family="Courier" font-size="18.0" fill="#333333" transform="matrix(1.00, 0.00, -0.00, -1.00, 77.6, 116.0)">i</text><text xml:space="preserve" font-family="Courier" font-size="18.0" fill="#333333" transform="matrix(1.00, 0.00, -0.00, -1.00, 88.4, 116.0)"> </text><text xml:space="preserve" font-family="Courier" font-size="18.0" fill="#333333" transform="matrix(1.00, 0.00, -0.00, -1.00, 99.2, 116.0)">=</text><text xml:space="preserve" font-family="Courier" font-size="18.0" fill="#333333" transform="matrix(1.00, 0.00, -0.00, -1.00, 110.0, 116.0)"> </text><text xml:space="preserve" font-family="Courier" font-size="18.0" fill="#F4871E" transform="matrix(1.00, 0.00, -0.00, -1.00, 120.8, 116.0)">1</text><text xml:space="preserve" font-family="Courier" font-size="18.0" fill="#333333" transform="matrix(1.00, 0.00, -0.00, -1.00, 131.6, 116.0)">;</text><text xml:space="preserve" font-family="Courier" font-size="18.0" fill="#333333" transform="matrix(1.00, 0.00, -0.00, -1.00, 142.4, 116.0)"> </text><text xml:space="preserve" font-family="Courier" font-size="18.0" fill="#F4871E" transform="matrix(1.00, 0.00, -0.00, -1.00, 2.0, 94.0)"> </text><text xml:space="preserve" font-family="Courier" font-size="18.0" fill="#F4871E" transform="matrix(1.00, 0.00, -0.00, -1.00, 12.8, 94.0)"> </text><text xml:space="preserve" font-family="Courier" font-size="18.0" fill="#F4871E" transform="matrix(1.00, 0.00, -0.00, -1.00, 23.6, 94.0)"> </text><text xml:space="preserve" font-family="Courier" font-size="18.0" fill="#F4871E" transform="matrix(1.00, 0.00, -0.00, -1.00, 34.4, 94.0)">c</text><text xml:space="preserve" font-family="Courier" font-size="18.0" fill="#F4871E" transform="matrix(1.00, 0.00, -0.00, -1.00, 45.2, 94.0)">i</text><text xml:space="preserve" font-family="Courier" font-size="18.0" fill="#F4871E" transform="matrix(1.00, 0.00, -0.00, -1.00, 56.0, 94.0)">n</text><text xml:space="preserve" font-family="Courier" font-size="18.0" fill="#333333" transform="matrix(1.00, 0.00, -0.00, -1.00, 66.8, 94.0)"> </text><text xml:space="preserve" font-family="Courier" font-size="18.0" fill="#333333" transform="matrix(1.00, 0.00, -0.00, -1.00, 77.6, 94.0)">&gt;</text><text xml:space="preserve" font-family="Courier" font-size="18.0" fill="#333333" transform="matrix(1.00, 0.00, -0.00, -1.00, 88.4, 94.0)">&gt;</text><text xml:space="preserve" font-family="Courier" font-size="18.0" fill="#333333" transform="matrix(1.00, 0.00, -0.00, -1.00, 99.2, 94.0)"> </text><text xml:space="preserve" font-family="Courier" font-size="18.0" fill="#333333" transform="matrix(1.00, 0.00, -0.00, -1.00, 110.0, 94.0)">n</text><text xml:space="preserve" font-family="Courier" font-size="18.0" fill="#333333" transform="matrix(1.00, 0.00, -0.00, -1.00, 120.8, 94.0)">;</text><text xml:space="preserve" font-family="Courier" font-size="18.0" fill="#333333" transform="matrix(1.00, 0.00, -0.00, -1.00, 131.6, 94.0)"> </text><text xml:space="preserve" font-family="Courier" font-size="18.0" fill="#8858A7" transform="matrix(1.00, 0.00, -0.00, -1.00, 2.0, 72.0)"> </text><text xml:space="preserve" font-family="Courier" font-size="18.0" fill="#8858A7" transform="matrix(1.00, 0.00, -0.00, -1.00, 12.8, 72.0)"> </text><text xml:space="preserve" font-family="Courier" font-size="18.0" fill="#8858A7" transform="matrix(1.00, 0.00, -0.00, -1.00, 23.6, 72.0)"> </text><text xml:space="preserve" font-family="Courier" font-size="18.0" fill="#8858A7" transform="matrix(1.00, 0.00, -0.00, -1.00, 34.4, 72.0)">w</text><text xml:space="preserve" font-family="Courier" font-size="18.0" fill="#8858A7" transform="matrix(1.00, 0.00, -0.00, -1.00, 45.2, 72.0)">h</text><text xml:space="preserve" font-family="Courier" font-size="18.0" fill="#8858A7" transform="matrix(1.00, 0.00, -0.00, -1.00, 56.0, 72.0)">i</text><text xml:space="preserve" font-family="Courier" font-size="18.0" fill="#8858A7" transform="matrix(1.00, 0.00, -0.00, -1.00, 66.8, 72.0)">l</text><text xml:space="preserve" font-family="Courier" font-size="18.0" fill="#8858A7" transform="matrix(1.00, 0.00, -0.00, -1.00, 77.6, 72.0)">e</text><text xml:space="preserve" font-family="Courier" font-size="18.0" fill="#333333" transform="matrix(1.00, 0.00, -0.00, -1.00, 88.4, 72.0)">(</text><text xml:space="preserve" font-family="Courier" font-size="18.0" fill="#333333" transform="matrix(1.00, 0.00, -0.00, -1.00, 99.2, 72.0)"> </text><text xml:space="preserve" font-family="Courier" font-size="18.0" fill="#333333" transform="matrix(1.00, 0.00, -0.00, -1.00, 110.0, 72.0)">i</text><text xml:space="preserve" font-family="Courier" font-size="18.0" fill="#333333" transform="matrix(1.00, 0.00, -0.00, -1.00, 120.8, 72.0)"> </text><text xml:space="preserve" font-family="Courier" font-size="18.0" fill="#333333" transform="matrix(1.00, 0.00, -0.00, -1.00, 131.6, 72.0)">&lt;</text><text xml:space="preserve" font-family="Courier" font-size="18.0" fill="#333333" transform="matrix(1.00, 0.00, -0.00, -1.00, 142.4, 72.0)">=</text><text xml:space="preserve" font-family="Courier" font-size="18.0" fill="#333333" transform="matrix(1.00, 0.00, -0.00, -1.00, 153.2, 72.0)"> </text><text xml:space="preserve" font-family="Courier" font-size="18.0" fill="#333333" transform="matrix(1.00, 0.00, -0.00, -1.00, 164.0, 72.0)">n</text><text xml:space="preserve" font-family="Courier" font-size="18.0" fill="#333333" transform="matrix(1.00, 0.00, -0.00, -1.00, 174.8, 72.0)"> </text><text xml:space="preserve" font-family="Courier" font-size="18.0" fill="#333333" transform="matrix(1.00, 0.00, -0.00, -1.00, 185.6, 72.0)">)</text><text xml:space="preserve" font-family="Courier" font-size="18.0" fill="#333333" transform="matrix(1.00, 0.00, -0.00, -1.00, 196.4, 72.0)"> </text><text xml:space="preserve" font-family="Courier" font-size="18.0" fill="#333333" transform="matrix(1.00, 0.00, -0.00, -1.00, 2.0, 50.0)"> </text><text xml:space="preserve" font-family="Courier" font-size="18.0" fill="#333333" transform="matrix(1.00, 0.00, -0.00, -1.00, 12.8, 50.0)"> </text><text xml:space="preserve" font-family="Courier" font-size="18.0" fill="#333333" transform="matrix(1.00, 0.00, -0.00, -1.00, 23.6, 50.0)"> </text><text xml:space="preserve" font-family="Courier" font-size="18.0" fill="#333333" transform="matrix(1.00, 0.00, -0.00, -1.00, 34.4, 50.0)">{</text><text xml:space="preserve" font-family="Courier" font-size="18.0" fill="#333333" transform="matrix(1.00, 0.00, -0.00, -1.00, 45.2, 50.0)"> </text><text xml:space="preserve" font-family="Courier" font-size="18.0" fill="#F4871E" transform="matrix(1.00, 0.00, -0.00, -1.00, 56.0, 50.0)">c</text><text xml:space="preserve" font-family="Courier" font-size="18.0" fill="#F4871E" transform="matrix(1.00, 0.00, -0.00, -1.00, 66.8, 50.0)">o</text><text xml:space="preserve" font-family="Courier" font-size="18.0" fill="#F4871E" transform="matrix(1.00, 0.00, -0.00, -1.00, 77.6, 50.0)">u</text><text xml:space="preserve" font-family="Courier" font-size="18.0" fill="#F4871E" transform="matrix(1.00, 0.00, -0.00, -1.00, 88.4, 50.0)">t</text><text xml:space="preserve" font-family="Courier" font-size="18.0" fill="#333333" transform="matrix(1.00, 0.00, -0.00, -1.00, 99.2, 50.0)"> </text><text xml:space="preserve" font-family="Courier" font-size="18.0" fill="#333333" transform="matrix(1.00, 0.00, -0.00, -1.00, 110.0, 50.0)">&lt;</text><text xml:space="preserve" font-family="Courier" font-size="18.0" fill="#333333" transform="matrix(1.00, 0.00, -0.00, -1.00, 120.8, 50.0)">&lt;</text><text xml:space="preserve" font-family="Courier" font-size="18.0" fill="#333333" transform="matrix(1.00, 0.00, -0.00, -1.00, 131.6, 50.0)"> </text><text xml:space="preserve" font-family="Courier" font-size="18.0" fill="#718B00" transform="matrix(1.00, 0.00, -0.00, -1.00, 142.4, 50.0)">"</text><text xml:space="preserve" font-family="Courier" font-size="18.0" fill="#718B00" transform="matrix(1.00, 0.00, -0.00, -1.00, 153.2, 50.0)">N</text><text xml:space="preserve" font-family="Courier" font-size="18.0" fill="#718B00" transform="matrix(1.00, 0.00, -0.00, -1.00, 164.0, 50.0)">o</text><text xml:space="preserve" font-family="Courier" font-size="18.0" fill="#718B00" transform="matrix(1.00, 0.00, -0.00, -1.00, 174.8, 50.0)">.</text><text xml:space="preserve" font-family="Courier" font-size="18.0" fill="#718B00" transform="matrix(1.00, 0.00, -0.00, -1.00, 185.6, 50.0)">"</text><text xml:space="preserve" font-family="Courier" font-size="18.0" fill="#333333" transform="matrix(1.00, 0.00, -0.00, -1.00, 196.4, 50.0)"> </text><text xml:space="preserve" font-family="Courier" font-size="18.0" fill="#333333" transform="matrix(1.00, 0.00, -0.00, -1.00, 207.2, 50.0)">&lt;</text><text xml:space="preserve" font-family="Courier" font-size="18.0" fill="#333333" transform="matrix(1.00, 0.00, -0.00, -1.00, 218.0, 50.0)">&lt;</text><text xml:space="preserve" font-family="Courier" font-size="18.0" fill="#333333" transform="matrix(1.00, 0.00, -0.00, -1.00, 228.8, 50.0)"> </text><text xml:space="preserve" font-family="Courier" font-size="18.0" fill="#333333" transform="matrix(1.00, 0.00, -0.00, -1.00, 239.6, 50.0)">i</text><text xml:space="preserve" font-family="Courier" font-size="18.0" fill="#333333" transform="matrix(1.00, 0.00, -0.00, -1.00, 250.4, 50.0)"> </text><text xml:space="preserve" font-family="Courier" font-size="18.0" fill="#333333" transform="matrix(1.00, 0.00, -0.00, -1.00, 261.3, 50.0)">&lt;</text><text xml:space="preserve" font-family="Courier" font-size="18.0" fill="#333333" transform="matrix(1.00, 0.00, -0.00, -1.00, 272.1, 50.0)">&lt;</text><text xml:space="preserve" font-family="Courier" font-size="18.0" fill="#333333" transform="matrix(1.00, 0.00, -0.00, -1.00, 282.9, 50.0)"> </text><text xml:space="preserve" font-family="Courier" font-size="18.0" fill="#333333" transform="matrix(1.00, 0.00, -0.00, -1.00, 293.7, 50.0)">e</text><text xml:space="preserve" font-family="Courier" font-size="18.0" fill="#333333" transform="matrix(1.00, 0.00, -0.00, -1.00, 304.5, 50.0)">n</text><text xml:space="preserve" font-family="Courier" font-size="18.0" fill="#333333" transform="matrix(1.00, 0.00, -0.00, -1.00, 315.3, 50.0)">d</text><text xml:space="preserve" font-family="Courier" font-size="18.0" fill="#333333" transform="matrix(1.00, 0.00, -0.00, -1.00, 326.1, 50.0)">l</text><text xml:space="preserve" font-family="Courier" font-size="18.0" fill="#333333" transform="matrix(1.00, 0.00, -0.00, -1.00, 336.9, 50.0)">;</text><text xml:space="preserve" font-family="Courier" font-size="18.0" fill="#333333" transform="matrix(1.00, 0.00, -0.00, -1.00, 347.7, 50.0)"> </text><text xml:space="preserve" font-family="Courier" font-size="18.0" fill="#333333" transform="matrix(1.00, 0.00, -0.00, -1.00, 358.5, 50.0)">i</text><text xml:space="preserve" font-family="Courier" font-size="18.0" fill="#333333" transform="matrix(1.00, 0.00, -0.00, -1.00, 369.3, 50.0)"> </text><text xml:space="preserve" font-family="Courier" font-size="18.0" fill="#333333" transform="matrix(1.00, 0.00, -0.00, -1.00, 380.1, 50.0)">=</text><text xml:space="preserve" font-family="Courier" font-size="18.0" fill="#333333" transform="matrix(1.00, 0.00, -0.00, -1.00, 390.9, 50.0)"> </text><text xml:space="preserve" font-family="Courier" font-size="18.0" fill="#333333" transform="matrix(1.00, 0.00, -0.00, -1.00, 401.7, 50.0)">i</text><text xml:space="preserve" font-family="Courier" font-size="18.0" fill="#333333" transform="matrix(1.00, 0.00, -0.00, -1.00, 412.5, 50.0)">+</text><text xml:space="preserve" font-family="Courier" font-size="18.0" fill="#F4871E" transform="matrix(1.00, 0.00, -0.00, -1.00, 423.3, 50.0)">1</text><text xml:space="preserve" font-family="Courier" font-size="18.0" fill="#333333" transform="matrix(1.00, 0.00, -0.00, -1.00, 434.1, 50.0)">;</text><text xml:space="preserve" font-family="Courier" font-size="18.0" fill="#333333" transform="matrix(1.00, 0.00, -0.00, -1.00, 444.9, 50.0)"> </text><text xml:space="preserve" font-family="Courier" font-size="18.0" fill="#333333" transform="matrix(1.00, 0.00, -0.00, -1.00, 455.7, 50.0)">}</text><text xml:space="preserve" font-family="Courier" font-size="18.0" fill="#333333" transform="matrix(1.00, 0.00, -0.00, -1.00, 466.5, 50.0)"> </text><text xml:space="preserve" font-family="Courier" font-size="18.0" fill="#8858A7" transform="matrix(1.00, 0.00, -0.00, -1.00, 2.0, 28.0)"> </text><text xml:space="preserve" font-family="Courier" font-size="18.0" fill="#8858A7" transform="matrix(1.00, 0.00, -0.00, -1.00, 12.8, 28.0)"> </text><text xml:space="preserve" font-family="Courier" font-size="18.0" fill="#8858A7" transform="matrix(1.00, 0.00, -0.00, -1.00, 23.6, 28.0)"> </text><text xml:space="preserve" font-family="Courier" font-size="18.0" fill="#8858A7" transform="matrix(1.00, 0.00, -0.00, -1.00, 34.4, 28.0)">r</text><text xml:space="preserve" font-family="Courier" font-size="18.0" fill="#8858A7" transform="matrix(1.00, 0.00, -0.00, -1.00, 45.2, 28.0)">e</text><text xml:space="preserve" font-family="Courier" font-size="18.0" fill="#8858A7" transform="matrix(1.00, 0.00, -0.00, -1.00, 56.0, 28.0)">t</text><text xml:space="preserve" font-family="Courier" font-size="18.0" fill="#8858A7" transform="matrix(1.00, 0.00, -0.00, -1.00, 66.8, 28.0)">u</text><text xml:space="preserve" font-family="Courier" font-size="18.0" fill="#8858A7" transform="matrix(1.00, 0.00, -0.00, -1.00, 77.6, 28.0)">r</text><text xml:space="preserve" font-family="Courier" font-size="18.0" fill="#8858A7" transform="matrix(1.00, 0.00, -0.00, -1.00, 88.4, 28.0)">n</text><text xml:space="preserve" font-family="Courier" font-size="18.0" fill="#333333" transform="matrix(1.00, 0.00, -0.00, -1.00, 99.2, 28.0)"> </text><text xml:space="preserve" font-family="Courier" font-size="18.0" fill="#F4871E" transform="matrix(1.00, 0.00, -0.00, -1.00, 110.0, 28.0)">0</text><text xml:space="preserve" font-family="Courier" font-size="18.0" fill="#333333" transform="matrix(1.00, 0.00, -0.00, -1.00, 120.8, 28.0)">;</text><text xml:space="preserve" font-family="Courier" font-size="18.0" fill="#333333" transform="matrix(1.00, 0.00, -0.00, -1.00, 131.6, 28.0)"> </text><text xml:space="preserve" font-family="Courier" font-size="18.0" fill="#333333" transform="matrix(1.00, 0.00, -0.00, -1.00, 2.0, 6.0)">}</text><text xml:space="preserve" font-family="CenturyGothic" font-size="18.0" fill="#000000" transform="matrix(1.00, 0.00, -0.00, -1.00, 12.8, 6.0)"> </text></g></g></g></svg>