<?xml version="1.0" encoding="UTF-8" standalone="no"?><svg xmlns="http://www.w3.org/2000/svg" xmlns:xlink="http://www.w3.org/1999/xlink" clip-rule="evenodd" stroke-miterlimit="4.00" viewBox="0 0 159 120"><desc>SVG generated by Keynote</desc><defs></defs><g transform="matrix(1.00, 0.00, -0.00, -1.00, 0.0, 120.0)"><path d="M 1.4 118.7 L 157.3 118.7 L 157.3 1.5 L 1.4 1.5 Z M 1.4 118.7 " fill="#BFBFBF"></path><g><clipPath id="clip-1816"><path d="M -0.5 -0.4 L 159.2 -0.4 L 159.2 120.6 L -0.5 120.6 Z M -0.5 -0.4 "></path></clipPath><g clip-path="url(#clip-1816)"><text xml:space="preserve" font-family="CenturyGothic" font-size="18.0" fill="#000000" transform="matrix(1.00, 0.00, -0.00, -1.00, 5.0, 97.0)">*</text><text xml:space="preserve" font-family="CenturyGothic" font-size="18.0" fill="#000000" transform="matrix(1.00, 0.00, -0.00, -1.00, 12.6, 97.0)">*</text><text xml:space="preserve" font-family="CenturyGothic" font-size="18.0" fill="#000000" transform="matrix(1.00, 0.00, -0.00, -1.00, 20.3, 97.0)">*</text><text xml:space="preserve" font-family="CenturyGothic" font-size="18.0" fill="#000000" transform="matrix(1.00, 0.00, -0.00, -1.00, 27.9, 97.0)">*</text><text xml:space="preserve" font-family="CenturyGothic" font-size="18.0" fill="#000000" transform="matrix(1.00, 0.00, -0.00, -1.00, 35.6, 97.0)">*</text><text xml:space="preserve" font-family="CenturyGothic" font-size="18.0" fill="#000000" transform="matrix(1.00, 0.00, -0.00, -1.00, 43.2, 97.0)"> </text><text xml:space="preserve" font-family="CenturyGothic" font-size="18.0" fill="#000000" transform="matrix(1.00, 0.00, -0.00, -1.00, 5.0, 75.0)">*</text><text xml:space="preserve" font-family="CenturyGothic" font-size="18.0" fill="#000000" transform="matrix(1.00, 0.00, -0.00, -1.00, 12.6, 75.0)">*</text><text xml:space="preserve" font-family="CenturyGothic" font-size="18.0" fill="#000000" transform="matrix(1.00, 0.00, -0.00, -1.00, 20.3, 75.0)">*</text><text xml:space="preserve" font-family="CenturyGothic" font-size="18.0" fill="#000000" transform="matrix(1.00, 0.00, -0.00, -1.00, 27.9, 75.0)">*</text><text xml:space="preserve" font-family="CenturyGothic" font-size="18.0" fill="#000000" transform="matrix(1.00, 0.00, -0.00, -1.00, 35.6, 75.0)"> </text><text xml:space="preserve" font-family="CenturyGothic" font-size="18.0" fill="#000000" transform="matrix(1.00, 0.00, -0.00, -1.00, 5.0, 53.0)">*</text><text xml:space="preserve" font-family="CenturyGothic" font-size="18.0" fill="#000000" transform="matrix(1.00, 0.00, -0.00, -1.00, 12.6, 53.0)">*</text><text xml:space="preserve" font-family="CenturyGothic" font-size="18.0" fill="#000000" transform="matrix(1.00, 0.00, -0.00, -1.00, 20.3, 53.0)">*</text><text xml:space="preserve" font-family="CenturyGothic" font-size="18.0" fill="#000000" transform="matrix(1.00, 0.00, -0.00, -1.00, 27.9, 53.0)"> </text><text xml:space="preserve" font-family="CenturyGothic" font-size="18.0" fill="#000000" transform="matrix(1.00, 0.00, -0.00, -1.00, 5.0, 31.0)">*</text><text xml:space="preserve" font-family="CenturyGothic" font-size="18.0" fill="#000000" transform="matrix(1.00, 0.00, -0.00, -1.00, 12.6, 31.0)">*</text><text xml:space="preserve" font-family="CenturyGothic" font-size="18.0" fill="#000000" transform="matrix(1.00, 0.00, -0.00, -1.00, 20.3, 31.0)"> </text><text xml:space="preserve" font-family="CenturyGothic" font-size="18.0" fill="#000000" transform="matrix(1.00, 0.00, -0.00, -1.00, 5.0, 9.0)">*</text></g></g></g></svg>