<?xml version="1.0" encoding="UTF-8" standalone="no"?><svg xmlns="http://www.w3.org/2000/svg" xmlns:xlink="http://www.w3.org/1999/xlink" clip-rule="evenodd" stroke-miterlimit="4.00" viewBox="0 0 174 99"><desc>SVG generated by Keynote</desc><defs></defs><g transform="matrix(1.00, 0.00, -0.00, -1.00, 0.0, 99.0)"><path d="M 1.1 97.0 L 172.3 97.0 L 172.3 1.8 L 1.1 1.8 Z M 1.1 97.0 " fill="#BFBFBF"></path><g><clipPath id="clip-1566"><path d="M -0.8 -0.1 L 336.6 -0.1 L 336.6 98.9 L -0.8 98.9 Z M -0.8 -0.1 "></path></clipPath><g clip-path="url(#clip-1566)"><text xml:space="preserve" font-family="CenturyGothic-Bold" font-weight="bold" font-size="18.0" fill="#000000" transform="matrix(1.00, 0.00, -0.00, -1.00, 5.0, 75.0)">f</text><text xml:space="preserve" font-family="CenturyGothic-Bold" font-weight="bold" font-size="18.0" fill="#000000" transform="matrix(1.00, 0.00, -0.00, -1.00, 10.0, 75.0)">o</text><text xml:space="preserve" font-family="CenturyGothic-Bold" font-weight="bold" font-size="18.0" fill="#000000" transform="matrix(1.00, 0.00, -0.00, -1.00, 21.6, 75.0)">r</text><text xml:space="preserve" font-family="CenturyGothic-Bold" font-weight="bold" font-size="18.0" fill="#000000" transform="matrix(1.00, 0.00, -0.00, -1.00, 27.3, 75.0)"> </text><text xml:space="preserve" font-family="CenturyGothic-Bold" font-weight="bold" font-size="18.0" fill="#000000" transform="matrix(1.00, 0.00, -0.00, -1.00, 32.3, 75.0)">(</text><text xml:space="preserve" font-family="CenturyGothic-Bold" font-weight="bold" font-size="18.0" fill="#000000" transform="matrix(1.00, 0.00, -0.00, -1.00, 39.2, 75.0)">i</text><text xml:space="preserve" font-family="CenturyGothic-Bold" font-weight="bold" font-size="18.0" fill="#000000" transform="matrix(1.00, 0.00, -0.00, -1.00, 43.5, 75.0)">n</text><text xml:space="preserve" font-family="CenturyGothic-Bold" font-weight="bold" font-size="18.0" fill="#000000" transform="matrix(1.00, 0.00, -0.00, -1.00, 54.3, 75.0)">t</text><text xml:space="preserve" font-family="CenturyGothic-Bold" font-weight="bold" font-size="18.0" fill="#000000" transform="matrix(1.00, 0.00, -0.00, -1.00, 59.7, 75.0)"> </text><text xml:space="preserve" font-family="CenturyGothic-Bold" font-weight="bold" font-size="18.0" fill="#000000" transform="matrix(1.00, 0.00, -0.00, -1.00, 64.7, 75.0)">i</text><text xml:space="preserve" font-family="CenturyGothic-Bold" font-weight="bold" font-size="18.0" fill="#000000" transform="matrix(1.00, 0.00, -0.00, -1.00, 69.0, 75.0)"> </text><text xml:space="preserve" font-family="CenturyGothic-Bold" font-weight="bold" font-size="18.0" fill="#000000" transform="matrix(1.00, 0.00, -0.00, -1.00, 74.1, 75.0)">=</text><text xml:space="preserve" font-family="CenturyGothic-Bold" font-weight="bold" font-size="18.0" fill="#000000" transform="matrix(1.00, 0.00, -0.00, -1.00, 84.8, 75.0)">0</text><text xml:space="preserve" font-family="CenturyGothic-Bold" font-weight="bold" font-size="18.0" fill="#000000" transform="matrix(1.00, 0.00, -0.00, -1.00, 94.9, 75.0)">;</text><text xml:space="preserve" font-family="CenturyGothic-Bold" font-weight="bold" font-size="18.0" fill="#000000" transform="matrix(1.00, 0.00, -0.00, -1.00, 100.0, 75.0)">i</text><text xml:space="preserve" font-family="CenturyGothic-Bold" font-weight="bold" font-size="18.0" fill="#000000" transform="matrix(1.00, 0.00, -0.00, -1.00, 104.3, 75.0)">&lt;</text><text xml:space="preserve" font-family="CenturyGothic-Bold" font-weight="bold" font-size="18.0" fill="#000000" transform="matrix(1.00, 0.00, -0.00, -1.00, 115.1, 75.0)">5</text><text xml:space="preserve" font-family="CenturyGothic-Bold" font-weight="bold" font-size="18.0" fill="#000000" transform="matrix(1.00, 0.00, -0.00, -1.00, 125.1, 75.0)">;</text><text xml:space="preserve" font-family="CenturyGothic-Bold" font-weight="bold" font-size="18.0" fill="#000000" transform="matrix(1.00, 0.00, -0.00, -1.00, 130.2, 75.0)">i</text><text xml:space="preserve" font-family="CenturyGothic-Bold" font-weight="bold" font-size="18.0" fill="#000000" transform="matrix(1.00, 0.00, -0.00, -1.00, 134.5, 75.0)">+</text><text xml:space="preserve" font-family="CenturyGothic-Bold" font-weight="bold" font-size="18.0" fill="#000000" transform="matrix(1.00, 0.00, -0.00, -1.00, 145.3, 75.0)">+</text><text xml:space="preserve" font-family="CenturyGothic-Bold" font-weight="bold" font-size="18.0" fill="#000000" transform="matrix(1.00, 0.00, -0.00, -1.00, 156.1, 75.0)">)</text><text xml:space="preserve" font-family="CenturyGothic-Bold" font-weight="bold" font-size="18.0" fill="#000000" transform="matrix(1.00, 0.00, -0.00, -1.00, 162.9, 75.0)"> </text><text xml:space="preserve" font-family="CenturyGothic-Bold" font-weight="bold" font-size="18.0" fill="#000000" transform="matrix(1.00, 0.00, -0.00, -1.00, 5.0, 53.0)">{</text><text xml:space="preserve" font-family="CenturyGothic-Bold" font-weight="bold" font-size="18.0" fill="#000000" transform="matrix(1.00, 0.00, -0.00, -1.00, 11.1, 53.0)"> </text><text xml:space="preserve" font-family="CenturyGothic-Bold" font-weight="bold" font-size="18.0" fill="#000000" transform="matrix(1.00, 0.00, -0.00, -1.00, 5.0, 31.0)"> </text><text xml:space="preserve" font-family="CenturyGothic-Bold" font-weight="bold" font-size="18.0" fill="#000000" transform="matrix(1.00, 0.00, -0.00, -1.00, 10.0, 31.0)"> </text><text xml:space="preserve" font-family="CenturyGothic-Bold" font-weight="bold" font-size="18.0" fill="#000000" transform="matrix(1.00, 0.00, -0.00, -1.00, 15.1, 31.0)"> </text><text xml:space="preserve" font-family="CenturyGothic-Bold" font-weight="bold" font-size="18.0" fill="#000000" transform="matrix(1.00, 0.00, -0.00, -1.00, 20.1, 31.0)"> </text><text xml:space="preserve" font-family="CenturyGothic-Bold" font-weight="bold" font-size="18.0" fill="#000000" transform="matrix(1.00, 0.00, -0.00, -1.00, 25.1, 31.0)">c</text><text xml:space="preserve" font-family="CenturyGothic-Bold" font-weight="bold" font-size="18.0" fill="#000000" transform="matrix(1.00, 0.00, -0.00, -1.00, 36.6, 31.0)">o</text><text xml:space="preserve" font-family="CenturyGothic-Bold" font-weight="bold" font-size="18.0" fill="#000000" transform="matrix(1.00, 0.00, -0.00, -1.00, 48.2, 31.0)">u</text><text xml:space="preserve" font-family="CenturyGothic-Bold" font-weight="bold" font-size="18.0" fill="#000000" transform="matrix(1.00, 0.00, -0.00, -1.00, 59.0, 31.0)">t</text><text xml:space="preserve" font-family="CenturyGothic-Bold" font-weight="bold" font-size="18.0" fill="#000000" transform="matrix(1.00, 0.00, -0.00, -1.00, 64.4, 31.0)">&lt;</text><text xml:space="preserve" font-family="CenturyGothic-Bold" font-weight="bold" font-size="18.0" fill="#000000" transform="matrix(1.00, 0.00, -0.00, -1.00, 75.2, 31.0)">&lt;</text><text xml:space="preserve" font-family="CenturyGothic-Bold" font-weight="bold" font-size="18.0" fill="#000000" transform="matrix(1.00, 0.00, -0.00, -1.00, 86.0, 31.0)"> </text><text xml:space="preserve" font-family="CenturyGothic-Bold" font-weight="bold" font-size="18.0" fill="#000000" transform="matrix(1.00, 0.00, -0.00, -1.00, 91.0, 31.0)">"</text><text xml:space="preserve" font-family="CenturyGothic-Bold" font-weight="bold" font-size="18.0" fill="#000000" transform="matrix(1.00, 0.00, -0.00, -1.00, 97.5, 31.0)">*</text><text xml:space="preserve" font-family="CenturyGothic-Bold" font-weight="bold" font-size="18.0" fill="#000000" transform="matrix(1.00, 0.00, -0.00, -1.00, 105.4, 31.0)">"</text><text xml:space="preserve" font-family="CenturyGothic-Bold" font-weight="bold" font-size="18.0" fill="#000000" transform="matrix(1.00, 0.00, -0.00, -1.00, 111.9, 31.0)">;</text><text xml:space="preserve" font-family="CenturyGothic-Bold" font-weight="bold" font-size="18.0" fill="#000000" transform="matrix(1.00, 0.00, -0.00, -1.00, 116.9, 31.0)"> </text><text xml:space="preserve" font-family="CenturyGothic-Bold" font-weight="bold" font-size="18.0" fill="#000000" transform="matrix(1.00, 0.00, -0.00, -1.00, 5.0, 9.0)">}</text></g></g></g></svg>