<?xml version="1.0" encoding="UTF-8" standalone="no"?><svg xmlns="http://www.w3.org/2000/svg" xmlns:xlink="http://www.w3.org/1999/xlink" clip-rule="evenodd" stroke-miterlimit="4.00" viewBox="0 0 229 175"><desc>SVG generated by Keynote</desc><defs></defs><g transform="matrix(1.00, 0.00, -0.00, -1.00, 0.0, 175.0)"><text xml:space="preserve" font-family="CenturyGothic-Bold" font-weight="bold" font-size="18.0" fill="#000000" transform="matrix(1.00, 0.00, -0.00, -1.00, 2.0, 160.0)">f</text><text xml:space="preserve" font-family="CenturyGothic-Bold" font-weight="bold" font-size="18.0" fill="#000000" transform="matrix(1.00, 0.00, -0.00, -1.00, 7.0, 160.0)">o</text><text xml:space="preserve" font-family="CenturyGothic-Bold" font-weight="bold" font-size="18.0" fill="#000000" transform="matrix(1.00, 0.00, -0.00, -1.00, 18.6, 160.0)">r</text><text xml:space="preserve" font-family="CenturyGothic-Bold" font-weight="bold" font-size="18.0" fill="#000000" transform="matrix(1.00, 0.00, -0.00, -1.00, 24.3, 160.0)"> </text><text xml:space="preserve" font-family="CenturyGothic-Bold" font-weight="bold" font-size="18.0" fill="#000000" transform="matrix(1.00, 0.00, -0.00, -1.00, 29.3, 160.0)">(</text><text xml:space="preserve" font-family="CenturyGothic-Bold" font-weight="bold" font-size="18.0" fill="#000000" transform="matrix(1.00, 0.00, -0.00, -1.00, 36.2, 160.0)">i</text><text xml:space="preserve" font-family="CenturyGothic-Bold" font-weight="bold" font-size="18.0" fill="#000000" transform="matrix(1.00, 0.00, -0.00, -1.00, 40.5, 160.0)">n</text><text xml:space="preserve" font-family="CenturyGothic-Bold" font-weight="bold" font-size="18.0" fill="#000000" transform="matrix(1.00, 0.00, -0.00, -1.00, 51.3, 160.0)">t</text><text xml:space="preserve" font-family="CenturyGothic-Bold" font-weight="bold" font-size="18.0" fill="#000000" transform="matrix(1.00, 0.00, -0.00, -1.00, 56.7, 160.0)"> </text><text xml:space="preserve" font-family="CenturyGothic-Bold" font-weight="bold" font-size="18.0" fill="#000000" transform="matrix(1.00, 0.00, -0.00, -1.00, 61.7, 160.0)">i</text><text xml:space="preserve" font-family="CenturyGothic-Bold" font-weight="bold" font-size="18.0" fill="#000000" transform="matrix(1.00, 0.00, -0.00, -1.00, 66.0, 160.0)"> </text><text xml:space="preserve" font-family="CenturyGothic-Bold" font-weight="bold" font-size="18.0" fill="#000000" transform="matrix(1.00, 0.00, -0.00, -1.00, 71.1, 160.0)">=</text><text xml:space="preserve" font-family="CenturyGothic-Bold" font-weight="bold" font-size="18.0" fill="#000000" transform="matrix(1.00, 0.00, -0.00, -1.00, 81.8, 160.0)"> </text><text xml:space="preserve" font-family="CenturyGothic-Bold" font-weight="bold" font-size="18.0" fill="#000000" transform="matrix(1.00, 0.00, -0.00, -1.00, 86.9, 160.0)">0</text><text xml:space="preserve" font-family="CenturyGothic-Bold" font-weight="bold" font-size="18.0" fill="#000000" transform="matrix(1.00, 0.00, -0.00, -1.00, 97.0, 160.0)">;</text><text xml:space="preserve" font-family="CenturyGothic-Bold" font-weight="bold" font-size="18.0" fill="#000000" transform="matrix(1.00, 0.00, -0.00, -1.00, 102.0, 160.0)"> </text><text xml:space="preserve" font-family="CenturyGothic-Bold" font-weight="bold" font-size="18.0" fill="#000000" transform="matrix(1.00, 0.00, -0.00, -1.00, 107.0, 160.0)">i</text><text xml:space="preserve" font-family="CenturyGothic-Bold" font-weight="bold" font-size="18.0" fill="#000000" transform="matrix(1.00, 0.00, -0.00, -1.00, 111.3, 160.0)">&lt;</text><text xml:space="preserve" font-family="CenturyGothic-Bold" font-weight="bold" font-size="18.0" fill="#000000" transform="matrix(1.00, 0.00, -0.00, -1.00, 122.1, 160.0)">5</text><text xml:space="preserve" font-family="CenturyGothic-Bold" font-weight="bold" font-size="18.0" fill="#000000" transform="matrix(1.00, 0.00, -0.00, -1.00, 132.2, 160.0)">;</text><text xml:space="preserve" font-family="CenturyGothic-Bold" font-weight="bold" font-size="18.0" fill="#000000" transform="matrix(1.00, 0.00, -0.00, -1.00, 137.2, 160.0)"> </text><text xml:space="preserve" font-family="CenturyGothic-Bold" font-weight="bold" font-size="18.0" fill="#000000" transform="matrix(1.00, 0.00, -0.00, -1.00, 142.3, 160.0)">i</text><text xml:space="preserve" font-family="CenturyGothic-Bold" font-weight="bold" font-size="18.0" fill="#000000" transform="matrix(1.00, 0.00, -0.00, -1.00, 146.6, 160.0)">+</text><text xml:space="preserve" font-family="CenturyGothic-Bold" font-weight="bold" font-size="18.0" fill="#000000" transform="matrix(1.00, 0.00, -0.00, -1.00, 157.4, 160.0)">+</text><text xml:space="preserve" font-family="CenturyGothic-Bold" font-weight="bold" font-size="18.0" fill="#000000" transform="matrix(1.00, 0.00, -0.00, -1.00, 168.2, 160.0)">)</text><text xml:space="preserve" font-family="CenturyGothic-Bold" font-weight="bold" font-size="18.0" fill="#000000" transform="matrix(1.00, 0.00, -0.00, -1.00, 175.0, 160.0)"> </text><text xml:space="preserve" font-family="CenturyGothic-Bold" font-weight="bold" font-size="18.0" fill="#000000" transform="matrix(1.00, 0.00, -0.00, -1.00, 2.0, 138.0)">{</text><text xml:space="preserve" font-family="CenturyGothic-Bold" font-weight="bold" font-size="18.0" fill="#000000" transform="matrix(1.00, 0.00, -0.00, -1.00, 8.1, 138.0)"> </text><text xml:space="preserve" font-family="CenturyGothic-Bold" font-weight="bold" font-size="18.0" fill="#000000" transform="matrix(1.00, 0.00, -0.00, -1.00, 2.0, 116.0)"> </text><text xml:space="preserve" font-family="CenturyGothic-Bold" font-weight="bold" font-size="18.0" fill="#000000" transform="matrix(1.00, 0.00, -0.00, -1.00, 38.0, 116.0)">f</text><text xml:space="preserve" font-family="CenturyGothic-Bold" font-weight="bold" font-size="18.0" fill="#000000" transform="matrix(1.00, 0.00, -0.00, -1.00, 43.0, 116.0)">o</text><text xml:space="preserve" font-family="CenturyGothic-Bold" font-weight="bold" font-size="18.0" fill="#000000" transform="matrix(1.00, 0.00, -0.00, -1.00, 54.6, 116.0)">r</text><text xml:space="preserve" font-family="CenturyGothic-Bold" font-weight="bold" font-size="18.0" fill="#000000" transform="matrix(1.00, 0.00, -0.00, -1.00, 60.3, 116.0)"> </text><text xml:space="preserve" font-family="CenturyGothic-Bold" font-weight="bold" font-size="18.0" fill="#000000" transform="matrix(1.00, 0.00, -0.00, -1.00, 65.3, 116.0)">(</text><text xml:space="preserve" font-family="CenturyGothic-Bold" font-weight="bold" font-size="18.0" fill="#000000" transform="matrix(1.00, 0.00, -0.00, -1.00, 72.2, 116.0)">i</text><text xml:space="preserve" font-family="CenturyGothic-Bold" font-weight="bold" font-size="18.0" fill="#000000" transform="matrix(1.00, 0.00, -0.00, -1.00, 76.5, 116.0)">n</text><text xml:space="preserve" font-family="CenturyGothic-Bold" font-weight="bold" font-size="18.0" fill="#000000" transform="matrix(1.00, 0.00, -0.00, -1.00, 87.3, 116.0)">t</text><text xml:space="preserve" font-family="CenturyGothic-Bold" font-weight="bold" font-size="18.0" fill="#000000" transform="matrix(1.00, 0.00, -0.00, -1.00, 92.7, 116.0)"> </text><text xml:space="preserve" font-family="CenturyGothic-Bold" font-weight="bold" font-size="18.0" fill="#000000" transform="matrix(1.00, 0.00, -0.00, -1.00, 97.7, 116.0)">j</text><text xml:space="preserve" font-family="CenturyGothic-Bold" font-weight="bold" font-size="18.0" fill="#000000" transform="matrix(1.00, 0.00, -0.00, -1.00, 102.4, 116.0)"> </text><text xml:space="preserve" font-family="CenturyGothic-Bold" font-weight="bold" font-size="18.0" fill="#000000" transform="matrix(1.00, 0.00, -0.00, -1.00, 107.4, 116.0)">=</text><text xml:space="preserve" font-family="CenturyGothic-Bold" font-weight="bold" font-size="18.0" fill="#000000" transform="matrix(1.00, 0.00, -0.00, -1.00, 118.2, 116.0)"> </text><text xml:space="preserve" font-family="CenturyGothic-Bold" font-weight="bold" font-size="18.0" fill="#000000" transform="matrix(1.00, 0.00, -0.00, -1.00, 123.3, 116.0)">0</text><text xml:space="preserve" font-family="CenturyGothic-Bold" font-weight="bold" font-size="18.0" fill="#000000" transform="matrix(1.00, 0.00, -0.00, -1.00, 133.4, 116.0)">;</text><text xml:space="preserve" font-family="CenturyGothic-Bold" font-weight="bold" font-size="18.0" fill="#000000" transform="matrix(1.00, 0.00, -0.00, -1.00, 138.4, 116.0)"> </text><text xml:space="preserve" font-family="CenturyGothic-Bold" font-weight="bold" font-size="18.0" fill="#FF0000" transform="matrix(1.00, 0.00, -0.00, -1.00, 143.4, 116.0)">j</text><text xml:space="preserve" font-family="CenturyGothic-Bold" font-weight="bold" font-size="18.0" fill="#FF0000" transform="matrix(1.00, 0.00, -0.00, -1.00, 148.1, 116.0)">&lt;</text><text xml:space="preserve" font-family="CenturyGothic-Bold" font-weight="bold" font-size="18.0" fill="#FF0000" transform="matrix(1.00, 0.00, -0.00, -1.00, 158.9, 116.0)">i</text><text xml:space="preserve" font-family="CenturyGothic-Bold" font-weight="bold" font-size="18.0" fill="#FF0000" transform="matrix(1.00, 0.00, -0.00, -1.00, 163.2, 116.0)">+</text><text xml:space="preserve" font-family="CenturyGothic-Bold" font-weight="bold" font-size="18.0" fill="#FF0000" transform="matrix(1.00, 0.00, -0.00, -1.00, 174.0, 116.0)">1</text><text xml:space="preserve" font-family="CenturyGothic-Bold" font-weight="bold" font-size="18.0" fill="#000000" transform="matrix(1.00, 0.00, -0.00, -1.00, 184.1, 116.0)">;</text><text xml:space="preserve" font-family="CenturyGothic-Bold" font-weight="bold" font-size="18.0" fill="#000000" transform="matrix(1.00, 0.00, -0.00, -1.00, 189.2, 116.0)"> </text><text xml:space="preserve" font-family="CenturyGothic-Bold" font-weight="bold" font-size="18.0" fill="#000000" transform="matrix(1.00, 0.00, -0.00, -1.00, 194.2, 116.0)">j</text><text xml:space="preserve" font-family="CenturyGothic-Bold" font-weight="bold" font-size="18.0" fill="#000000" transform="matrix(1.00, 0.00, -0.00, -1.00, 198.9, 116.0)">+</text><text xml:space="preserve" font-family="CenturyGothic-Bold" font-weight="bold" font-size="18.0" fill="#000000" transform="matrix(1.00, 0.00, -0.00, -1.00, 209.7, 116.0)">+</text><text xml:space="preserve" font-family="CenturyGothic-Bold" font-weight="bold" font-size="18.0" fill="#000000" transform="matrix(1.00, 0.00, -0.00, -1.00, 220.5, 116.0)">)</text><text xml:space="preserve" font-family="CenturyGothic-Bold" font-weight="bold" font-size="18.0" fill="#000000" transform="matrix(1.00, 0.00, -0.00, -1.00, 227.3, 116.0)"> </text><text xml:space="preserve" font-family="CenturyGothic-Bold" font-weight="bold" font-size="18.0" fill="#000000" transform="matrix(1.00, 0.00, -0.00, -1.00, 2.0, 94.0)"> </text><text xml:space="preserve" font-family="CenturyGothic-Bold" font-weight="bold" font-size="18.0" fill="#000000" transform="matrix(1.00, 0.00, -0.00, -1.00, 38.0, 94.0)"> </text><text xml:space="preserve" font-family="CenturyGothic-Bold" font-weight="bold" font-size="18.0" fill="#000000" transform="matrix(1.00, 0.00, -0.00, -1.00, 74.0, 94.0)">{</text><text xml:space="preserve" font-family="CenturyGothic-Bold" font-weight="bold" font-size="18.0" fill="#000000" transform="matrix(1.00, 0.00, -0.00, -1.00, 80.1, 94.0)"> </text><text xml:space="preserve" font-family="CenturyGothic-Bold" font-weight="bold" font-size="18.0" fill="#000000" transform="matrix(1.00, 0.00, -0.00, -1.00, 2.0, 72.0)"> </text><text xml:space="preserve" font-family="CenturyGothic-Bold" font-weight="bold" font-size="18.0" fill="#000000" transform="matrix(1.00, 0.00, -0.00, -1.00, 38.0, 72.0)"> </text><text xml:space="preserve" font-family="CenturyGothic-Bold" font-weight="bold" font-size="18.0" fill="#000000" transform="matrix(1.00, 0.00, -0.00, -1.00, 74.0, 72.0)"> </text><text xml:space="preserve" font-family="CenturyGothic-Bold" font-weight="bold" font-size="18.0" fill="#000000" transform="matrix(1.00, 0.00, -0.00, -1.00, 110.0, 72.0)">c</text><text xml:space="preserve" font-family="CenturyGothic-Bold" font-weight="bold" font-size="18.0" fill="#000000" transform="matrix(1.00, 0.00, -0.00, -1.00, 121.5, 72.0)">o</text><text xml:space="preserve" font-family="CenturyGothic-Bold" font-weight="bold" font-size="18.0" fill="#000000" transform="matrix(1.00, 0.00, -0.00, -1.00, 133.0, 72.0)">u</text><text xml:space="preserve" font-family="CenturyGothic-Bold" font-weight="bold" font-size="18.0" fill="#000000" transform="matrix(1.00, 0.00, -0.00, -1.00, 143.8, 72.0)">t</text><text xml:space="preserve" font-family="CenturyGothic-Bold" font-weight="bold" font-size="18.0" fill="#000000" transform="matrix(1.00, 0.00, -0.00, -1.00, 149.2, 72.0)"> </text><text xml:space="preserve" font-family="CenturyGothic-Bold" font-weight="bold" font-size="18.0" fill="#000000" transform="matrix(1.00, 0.00, -0.00, -1.00, 154.3, 72.0)">&lt;</text><text xml:space="preserve" font-family="CenturyGothic-Bold" font-weight="bold" font-size="18.0" fill="#000000" transform="matrix(1.00, 0.00, -0.00, -1.00, 165.1, 72.0)">&lt;</text><text xml:space="preserve" font-family="CenturyGothic-Bold" font-weight="bold" font-size="18.0" fill="#000000" transform="matrix(1.00, 0.00, -0.00, -1.00, 175.9, 72.0)"> </text><text xml:space="preserve" font-family="CenturyGothic-Bold" font-weight="bold" font-size="18.0" fill="#000000" transform="matrix(1.00, 0.00, -0.00, -1.00, 180.9, 72.0)">"</text><text xml:space="preserve" font-family="CenturyGothic-Bold" font-weight="bold" font-size="18.0" fill="#000000" transform="matrix(1.00, 0.00, -0.00, -1.00, 187.4, 72.0)">*</text><text xml:space="preserve" font-family="CenturyGothic-Bold" font-weight="bold" font-size="18.0" fill="#000000" transform="matrix(1.00, 0.00, -0.00, -1.00, 195.3, 72.0)">"</text><text xml:space="preserve" font-family="CenturyGothic-Bold" font-weight="bold" font-size="18.0" fill="#000000" transform="matrix(1.00, 0.00, -0.00, -1.00, 201.8, 72.0)">;</text><text xml:space="preserve" font-family="CenturyGothic-Bold" font-weight="bold" font-size="18.0" fill="#000000" transform="matrix(1.00, 0.00, -0.00, -1.00, 206.8, 72.0)"> </text><text xml:space="preserve" font-family="CenturyGothic-Bold" font-weight="bold" font-size="18.0" fill="#000000" transform="matrix(1.00, 0.00, -0.00, -1.00, 2.0, 50.0)"> </text><text xml:space="preserve" font-family="CenturyGothic-Bold" font-weight="bold" font-size="18.0" fill="#000000" transform="matrix(1.00, 0.00, -0.00, -1.00, 38.0, 50.0)"> </text><text xml:space="preserve" font-family="CenturyGothic-Bold" font-weight="bold" font-size="18.0" fill="#000000" transform="matrix(1.00, 0.00, -0.00, -1.00, 74.0, 50.0)">}</text><text xml:space="preserve" font-family="CenturyGothic-Bold" font-weight="bold" font-size="18.0" fill="#000000" transform="matrix(1.00, 0.00, -0.00, -1.00, 80.1, 50.0)"> </text><text xml:space="preserve" font-family="CenturyGothic-Bold" font-weight="bold" font-size="18.0" fill="#000000" transform="matrix(1.00, 0.00, -0.00, -1.00, 2.0, 28.0)"> </text><text xml:space="preserve" font-family="CenturyGothic-Bold" font-weight="bold" font-size="18.0" fill="#000000" transform="matrix(1.00, 0.00, -0.00, -1.00, 38.0, 28.0)"> </text><text xml:space="preserve" font-family="CenturyGothic-Bold" font-weight="bold" font-size="18.0" fill="#000000" transform="matrix(1.00, 0.00, -0.00, -1.00, 74.0, 28.0)">c</text><text xml:space="preserve" font-family="CenturyGothic-Bold" font-weight="bold" font-size="18.0" fill="#000000" transform="matrix(1.00, 0.00, -0.00, -1.00, 85.5, 28.0)">o</text><text xml:space="preserve" font-family="CenturyGothic-Bold" font-weight="bold" font-size="18.0" fill="#000000" transform="matrix(1.00, 0.00, -0.00, -1.00, 97.0, 28.0)">u</text><text xml:space="preserve" font-family="CenturyGothic-Bold" font-weight="bold" font-size="18.0" fill="#000000" transform="matrix(1.00, 0.00, -0.00, -1.00, 107.8, 28.0)">t</text><text xml:space="preserve" font-family="CenturyGothic-Bold" font-weight="bold" font-size="18.0" fill="#000000" transform="matrix(1.00, 0.00, -0.00, -1.00, 113.2, 28.0)"> </text><text xml:space="preserve" font-family="CenturyGothic-Bold" font-weight="bold" font-size="18.0" fill="#000000" transform="matrix(1.00, 0.00, -0.00, -1.00, 118.3, 28.0)">&lt;</text><text xml:space="preserve" font-family="CenturyGothic-Bold" font-weight="bold" font-size="18.0" fill="#000000" transform="matrix(1.00, 0.00, -0.00, -1.00, 129.1, 28.0)">&lt;</text><text xml:space="preserve" font-family="CenturyGothic-Bold" font-weight="bold" font-size="18.0" fill="#000000" transform="matrix(1.00, 0.00, -0.00, -1.00, 139.9, 28.0)"> </text><text xml:space="preserve" font-family="CenturyGothic-Bold" font-weight="bold" font-size="18.0" fill="#000000" transform="matrix(1.00, 0.00, -0.00, -1.00, 144.9, 28.0)">e</text><text xml:space="preserve" font-family="CenturyGothic-Bold" font-weight="bold" font-size="18.0" fill="#000000" transform="matrix(1.00, 0.00, -0.00, -1.00, 156.4, 28.0)">n</text><text xml:space="preserve" font-family="CenturyGothic-Bold" font-weight="bold" font-size="18.0" fill="#000000" transform="matrix(1.00, 0.00, -0.00, -1.00, 167.2, 28.0)">d</text><text xml:space="preserve" font-family="CenturyGothic-Bold" font-weight="bold" font-size="18.0" fill="#000000" transform="matrix(1.00, 0.00, -0.00, -1.00, 179.1, 28.0)">l</text><text xml:space="preserve" font-family="CenturyGothic-Bold" font-weight="bold" font-size="18.0" fill="#000000" transform="matrix(1.00, 0.00, -0.00, -1.00, 183.4, 28.0)">;</text><text xml:space="preserve" font-family="CenturyGothic-Bold" font-weight="bold" font-size="18.0" fill="#000000" transform="matrix(1.00, 0.00, -0.00, -1.00, 188.5, 28.0)"> </text><text xml:space="preserve" font-family="CenturyGothic-Bold" font-weight="bold" font-size="18.0" fill="#000000" transform="matrix(1.00, 0.00, -0.00, -1.00, 2.0, 6.0)">}</text></g></svg>