<?xml version="1.0" encoding="UTF-8" standalone="no"?><svg xmlns="http://www.w3.org/2000/svg" xmlns:xlink="http://www.w3.org/1999/xlink" clip-rule="evenodd" stroke-miterlimit="4.00" viewBox="0 0 1024 768"><desc>SVG generated by Keynote</desc><defs></defs><g transform="matrix(1.00, 0.00, -0.00, -1.00, 0.0, 768.0)"><g><clipPath id="clip-12"><path d="M 0.0 768.0 L 1024.0 768.0 L 1024.0 0.0 L 0.0 0.0 Z M 0.0 768.0 "></path></clipPath><g clip-path="url(#clip-12)"><image xlink:href="../../064B7F0C-2929-4FA2-8273-93E588CA9C8B/assets/DE78B55DDE70D88C6FF874E8D33A46A3.jpeg" width="1024.00" height="768.00" transform="matrix(1.00, 0.00, -0.00, -1.00, 0.0, 768.0)"></image></g></g><text xml:space="preserve" font-family="Chalkduster" font-size="72.0" fill="#FEFFFE" transform="matrix(1.00, 0.00, -0.00, -1.00, 250.0, 359.0)">C</text><text xml:space="preserve" font-family="Chalkduster" font-size="72.0" fill="#FEFFFE" transform="matrix(1.00, 0.00, -0.00, -1.00, 308.4, 359.0)">o</text><text xml:space="preserve" font-family="Chalkduster" font-size="72.0" fill="#FEFFFE" transform="matrix(1.00, 0.00, -0.00, -1.00, 363.7, 359.0)">d</text><text xml:space="preserve" font-family="Chalkduster" font-size="72.0" fill="#FEFFFE" transform="matrix(1.00, 0.00, -0.00, -1.00, 422.9, 359.0)">i</text><text xml:space="preserve" font-family="Chalkduster" font-size="72.0" fill="#FEFFFE" transform="matrix(1.00, 0.00, -0.00, -1.00, 451.4, 359.0)">n</text><text xml:space="preserve" font-family="Chalkduster" font-size="72.0" fill="#FEFFFE" transform="matrix(1.00, 0.00, -0.00, -1.00, 501.9, 359.0)">g</text><text xml:space="preserve" font-family="Chalkduster" font-size="72.0" fill="#FEFFFE" transform="matrix(1.00, 0.00, -0.00, -1.00, 551.0, 359.0)"> </text><text xml:space="preserve" font-family="Chalkduster" font-size="72.0" fill="#FEFFFE" transform="matrix(1.00, 0.00, -0.00, -1.00, 586.8, 359.0)">S</text><text xml:space="preserve" font-family="Chalkduster" font-size="72.0" fill="#FEFFFE" transform="matrix(1.00, 0.00, -0.00, -1.00, 622.6, 359.0)">t</text><text xml:space="preserve" font-family="Chalkduster" font-size="72.0" fill="#FEFFFE" transform="matrix(1.00, 0.00, -0.00, -1.00, 655.5, 359.0)">y</text><text xml:space="preserve" font-family="Chalkduster" font-size="72.0" fill="#FEFFFE" transform="matrix(1.00, 0.00, -0.00, -1.00, 699.3, 359.0)">l</text><text xml:space="preserve" font-family="Chalkduster" font-size="72.0" fill="#FEFFFE" transform="matrix(1.00, 0.00, -0.00, -1.00, 729.2, 359.0)">e</text></g></svg>